<svg xmlns="http://www.w3.org/2000/svg" width="1836" height="1629"><path fill="#2c004c" d="M400 30c2 2 2 2 2 5-1.3 7.7-7.7 14-13.2 19.2q-3 3-5.4 6.4-5 6.3-11 12-6.4 6.2-11.7 13.2a98 98 0 0 1-14.8 15.8 56 56 0 0 0-9 10 90 90 0 0 1-7.4 7.9c-4 3.9-7.5 7.7-10.7 12.2q-2.4 3-5.1 5.5-5.6 5.7-10.1 12.2c-6.8 9-6.8 9-10.6 13.1-4.3 4.7-8 9.8-12 14.9q-5.5 7.2-11.2 14.3-7 8.7-13.4 18l-6.8 9.1a464 464 0 0 0-38.2 58q-4.2 7.6-9 15-5 7.5-9.1 15.3l-6.1 10.5q-5.7 9.6-10.3 19.9l-9.6 20.1q-9 18.6-16.2 37.9l-6.1 15.7a785 785 0 0 0-45.8 162 499 499 0 0 0-7 49.4C92 625 92 625 91 628l-.3 4.5v2.6l-.2 2.8q-.2 7.6-1.5 15.1l-.6 11.7c-.3 6.1-.3 6.1-1.4 8.3l-.1 4.2V776c0 2.2 0 2.2 1.1 5l.4 6.9.2 5.2.1 2.6.1 2.3c.1 2.2.1 2.2 1.2 5l.6 10.2q.1 4.5 1.4 8.8l.6 9.6c.2 3 .4 5.5 1.4 8.4l.4 6c.5 10.8.5 10.8 3.6 21l.8 5.5c6 41 18.5 81.1 31.5 120.4l1 2.9q6.2 19 14.4 37 3.8 8.7 7 17.5c5 12.7 11.3 24.7 17.8 36.8q2.9 5.5 5.6 11.2A596 596 0 0 0 213 1161l1.3 2a760 760 0 0 0 27.6 39.5q7.6 10.7 15.9 21l4.8 6.3q4.7 5.9 10.3 11c2.5 2.6 4.4 5.3 6.5 8.2q3.7 4.4 8.2 8.4 2.9 3.2 5.5 6.7 5.8 7.3 12.4 13.6l2.4 2.4 17.4 17.4 2.2 2.3q6.4 6.2 13.5 11.7 4 3.2 7.5 7a100 100 0 0 0 11.9 10.5l10.2 8.2A890 890 0 0 0 406 1365l2 1.5a537 537 0 0 0 35.5 24 943 943 0 0 0 41.3 24.7q12.6 7.3 26 13.5l3.4 1.7q9.1 4.5 18.7 8.3l10.5 4.8q10.7 4.9 21.8 9.2l2 .7a665 665 0 0 0 74.2 24q5.1 1.3 10.1 2.8a358 358 0 0 0 37.4 8.5c8.5 2 17 3.1 25.6 4.2q10.1 1.2 20.3 3.5 6 1 12 1.4c2.2.2 2.2.2 5.2 1.2l5.2.3h3l12.4.5c2.4.2 2.4.2 5.4 1.2l4 .2h5.2l2.7.1 20 .4h2.6l2.4.1h2.2c1.9.2 1.9.2 4.9 1.2l5.5.1h16.2c2.3 0 2.3 0 4.3-1.1l7.3-.6h2.3q14-.6 27.8-.4h3.7l3.3.1c2.6 0 2.6 0 4.6-1.1l7-.4q8-.4 15.8-2.2 4.5-.7 9.2-.4l1-1 6-.5c4.1-.2 4.1-.2 8-1.5l8.3-1.3 10.7-1.7 2.5-.4c29.5-4.7 58.3-13 86.7-22.4l10-3.2a498 498 0 0 0 61.8-25.4q15.7-7.4 31-15.4l14.1-7.2q10-5 19.3-10.8 3.7-2.4 7.6-4.3 9.3-5.4 18.1-11.6l6-4.1a737 737 0 0 0 31.3-22.4 370 370 0 0 0 21.6-16.8l2-1.6a439 439 0 0 0 22.5-20.9 259 259 0 0 1 15.8-15q3.1-3 5.8-6 5.7-6.5 11.9-12.4 7.5-7.2 13.7-15.3l6.1-7q6-7 11.5-14.4l2-2.7 8.7-11.6a455 455 0 0 0 24-35.8c10.4-16 20.2-32.5 27.8-50a197 197 0 0 1 8-16.4c6-10.9 10.5-22.3 15-33.8l3.1-7.8c11.6-28.6 19-58.4 25.5-88.4l1.7-7.7c2.2-9.8 3-19.7 3.7-29.7.2-2.5.2-2.5 1.2-4.5v-4.4q-.2-5.6 1-11c1.2-7 1.2-14 1-21.1-.3-22.7-.3-22.7 2-29.5l.1-8.3v-12.5c0-2.2 0-2.2-1.1-4.2-1.4-9.5-1-19.3-1-28.9v-3l.1-2.8c0-2.5 0-2.5-1.1-5.3l-.6-5.8a466 466 0 0 0-28.1-122.3 341 341 0 0 0-34.5-76q-2.8-4.5-5-9c-6.9-12.9-15.1-25-23.2-37q-.8-1.4-1.7-2.7-7.7-11.4-16.3-22l-1.4-1.9-4.2-5.3-2.3-2.9-7.2-9a61 61 0 0 0-8.4-8.4c-4-3.3-6.5-7-9.2-11.1q-5-6.4-10.9-11.6l-2.4-2.6a72 72 0 0 0-8-6.2 44 44 0 0 1-9.1-8.2c-3.4-4.1-7.3-7-11.6-10l-8.2-6.3a271 271 0 0 0-31-22.2q-5.5-3.3-10.6-7a381 381 0 0 0-78-41.2 427 427 0 0 0-98-27.9c-2.1-.4-2.1-.4-5.1-1.4q-3 0-6.3.2-3.4-.3-6.8-1.2a61 61 0 0 0-16.9-1.3h-73q-7.4 0-14.7 1.9-5.2.7-10.3.4l-2 1-5.4.4c-5.3.4-10.1 1.4-15.3 2.8q-5 1.2-10.1 2.1-12.7 2.6-25 6.2l-2.4.6a394 394 0 0 0-65.3 22.7l-9.4 4.4-11.2 5a183 183 0 0 0-24 13.2A332 332 0 0 0 715 476l-2.5 2.2-8.5 7.5a88 88 0 0 0-12.7 13.5q-3.3 4-7 7.4a92 92 0 0 0-9.3 10.8q-2.2 3-4.7 5.9A305 305 0 0 0 649 553l-1.6 2.5a366 366 0 0 0-40.4 86.4l-.7 2.2a217 217 0 0 0-9 36c-1.2 8.7-1.2 8.7-2.3 10.9l-.5 7c-.4 6.8-.4 6.8-1.5 9l-.1 10v51.3c0 2.7 0 2.7 1.1 4.7l.4 4.8c4 47 25 94.4 50.7 133.3l1.6 2.4c8.8 13 18.7 24.3 29.8 35.3l6 6q10.7 10.8 22.5 20.2l1.8 1.4a196 196 0 0 0 43 25.4 161 161 0 0 0 63.8 18c2.4.2 2.4.2 3.4 1.2a108 108 0 0 0 9.3.2l42 .2c7 0 13.3-.7 20.1-2.7q3.7-1 7.7-1.6c14.7-3 29-9.8 42.2-16.7l3-1.5a127 127 0 0 0 17-10.9l5.4-3.9a150 150 0 0 0 22.3-19.6 149 149 0 0 0 26-33.6c13.7-21.4 19-46.8 17-71.9l-1-2-.7-6c-2.8-19.1-10-37-22-52.3l-3-4.3A71 71 0 0 0 967 771l-2.1-.7a259 259 0 0 0-48.3-11.8c-10.1-1.5-17.8-3.5-25-11.2-4.1-5.8-4.4-11.4-3.6-18.3a76 76 0 0 1 16-31l2.2-3a55 55 0 0 1 13.8-13l2.2-1.7c22-16.4 52.6-24 79.8-22.3l3 1 5 .4c17.7 1.5 35 6.8 51 14.6l2 1q7.1 3.5 13.8 7.8l2.1 1.3c15.2 9.6 28.4 21 41.1 33.6l2.4 2.4A120 120 0 0 1 1135 735l3.2 4a250 250 0 0 1 43 87.1q4.4 14.5 5.6 29.6c.1 2.5.1 2.5 1.2 5.3l.1 4.5V905c-.1 2.1-.1 2.1-1.1 5.1l-.4 7.7q-.6 11.8-3.2 23.2l-.8 4.5c-1.3 8-3.5 15.4-6 23l-1 3.8q-5.4 16.5-13 32.3l-3.1 7.2c-13 30.3-36 56-59 79.1l-2 2a204 204 0 0 1-34.1 29c-10 7.6-20.6 14-31.4 20.2l-2.2 1.3A347 347 0 0 1 964 1173l-3.6 1.2a232 232 0 0 1-39.5 10.4c-2.8.2-2.8.2-4.9 1.4l-3.9.4q-5.5.5-10.8 2c-12.7 3.3-25.9 4.2-39 5.4l-6.2.7c-5.4.8-11 .7-16.5.7h-3.2a73 73 0 0 1-16.8-1.7c-5.3-1-10.7-1.3-16.1-1.8a406 406 0 0 1-129.1-35.6l-9.1-4a280 280 0 0 1-66.2-41.4q-3-2.3-6-4.4c-3-2.2-5.4-4.6-8.1-7.3l-4-3c-3.3-2.4-6-5-9-8l-4-3a157 157 0 0 1-17.7-16.4c-4.9-4.8-9-9.7-12.8-15.5-2-2.7-4.2-4.6-6.8-6.6a30 30 0 0 1-4.6-5.2l-1.5-2.2-1.6-2.1-13.5-18a318 318 0 0 1-16.5-24l-1.9-3A473 473 0 0 1 440 877l-.8-2.7A209 209 0 0 1 432 842q-1.2-8.2-3.4-16.2-1.1-6-1.4-11.9-.3-3.8-1.3-7.4c-1-4.4-1-8.6-.9-13.1.2-2.3.2-2.3-1-4.3a66 66 0 0 1-.5-9l-.2-4.8-.1-2.2c-.1-2.2-.1-2.2-1.2-5l-.1-5.5v-48.9c0-2.4.5-4.3 1.1-6.6l.3-4.5V700l.3-5.3.1-2.5.1-2.3c.2-1.9.2-1.9 1.2-3.9l.5-7c.4-6.8.4-6.8 1.5-9l.4-6.4c.3-5.8 1.3-11 2.9-16.7q1-4.3 1.5-8.6c2.4-16.2 7.2-32 12.6-47.4l2.4-8a358 358 0 0 1 26.5-64.5q8.6-17.1 18.5-33.7l1.9-3.1q5.1-8.4 10.8-16.4A224 224 0 0 0 512 454l1.2-1.8q9-13.7 19.8-26.2l4.5-5.6q5.8-7 12-13.6a79 79 0 0 0 5-6.4q5.8-7.3 12.6-13.8l2.6-2.6 19.2-19.1 2.5-2.6c4-4 7.8-7.4 12.6-10.3l5.7-5.8q4.9-4.4 10.3-8.2l9.9-7.4 2.5-2q12.8-9.6 26.4-18.2l2.4-1.6 7.8-4.8 2.7-1.7 21.6-13.4c6.6-4 13.4-7.2 20.3-10.4q8.4-3.9 16.3-8.2 8.5-4.7 17.5-8l7.9-3.1A564 564 0 0 1 837 232c7.9-2.3 15.9-3.7 23.9-5.1l6-1.1 2.3-.5c1.7-.2 1.7-.2 2.7-1.4l5-.5c3.6-.3 3.6-.3 7-1.5l7-.7c2-.1 2-.1 3-1.3l7.4-.5c5 0 5 0 9.6-1.5l8.5-.7c2.5-.2 2.5-.2 4.5-1.3l7.1-.3h2.2l9-.3 10.6-.2c3 0 3 0 5.1-1.2l4.5-.1h40.4c2.1.1 2.1.1 5.1 1.1l6.8.2h2.8l23.8.5h2.8l2.6.1h2.2c2 .2 2 .2 5 1.2l10.4.6c5.5.3 5.5.3 6.6 1.4l7.3.4c6 .3 11.4 1.1 17.2 2.8q4.8 1 9.7 1.7 17.3 2.7 34.1 7.2l3 .8a525 525 0 0 1 102 35 445 445 0 0 1 58.4 30.5l2 1.3 12.6 7.5 12.3 7.3a180 180 0 0 1 17.8 11.9l1.8 1.3 5 3.6a509 509 0 0 1 42.9 33.2l7.6 6.1q6.5 5.1 12.4 10.8l6.6 5.8q6.4 5.6 12.3 11.6l2.2 2.2 16 16 2.1 2q5.8 5.8 10.4 12.3 2.9 3.5 6.2 6.6 6.7 6.5 12.1 14.1l3.6 4.6 11.3 14.8 8.9 11.6q4.9 6.9 9.5 14.1 3.7 6 7.5 11.6a644 644 0 0 1 15.4 24.2q7.5 12 13.6 24.7 3.8 7.6 7.8 15.1l7.2 13.6c3.8 7.4 6.8 15 9.8 22.7l5.5 13.4a623 623 0 0 1 35.4 116.4l2.3 9.4a87 87 0 0 1 2 15.4c0 2.4 0 2.4 1.2 4.4l.7 7.7c.2 2.3.2 2.3 1.3 4.3l.7 7.7c.2 2.3.2 2.3 1.3 4.3l.6 10.2c.1 4 .1 4 1.4 7.8l.3 5.4v3.2l.3 6.8.1 3.2.1 3c0 2.4 0 2.4 1.2 4.4l.1 8.6v77.2c0 3.3 0 6-1.1 9.2l-.3 6.4v3.8q-.2 4-.3 8l-.1 3.7-.1 3.5c-.2 2.6-.2 2.6-1.2 3.6l-.5 8.4c-.4 8.3-.4 8.3-1.5 10.6l-.5 5c-.4 4.8-.4 4.8-1.5 7l-.5 5c-.4 4.8-.4 4.8-1.5 7l-.7 6c-2 15.7-5.9 31.1-9.7 46.6l-1.8 7.4c-8.9 35.8-8.9 35.8-14.8 52l-3 8.8a641 641 0 0 1-35 84.1c-14.5 29.7-14.5 29.7-22.8 43.1l-3.8 6.5a405 405 0 0 1-37.5 55q-5.1 6.3-9.8 13a276 276 0 0 1-17.1 21.1q-4 4.5-7.6 9.2-5.8 7-12.5 13.2-3.6 3.7-6.5 7.6-6.3 7.7-13.4 14.7l-2.5 2.5-18.4 18.3-2.3 2.4q-6.6 6.5-14 12a53 53 0 0 0-6.2 6q-5.7 5.6-12.2 10.6l-6.5 5.6q-7.1 6.3-15 12l-11 8.6a462 462 0 0 1-33 23.6l-2.5 1.7a788 788 0 0 1-64.6 38.8 594 594 0 0 1-67.1 32c-18 7.9-36.4 14.4-55 20.5q-7.4 2.3-14.6 4.8a637 637 0 0 1-59.1 16.3l-2 .5a785 785 0 0 1-98.5 16.6l-2.4.2c-17.8 1.8-17.8 1.8-26.5 1.6q-6.6.1-13.3 1.1-8.1 1.2-16.4 1-7.4-.2-14.6 1c-7.5 1.1-15 1.2-22.5 1.3h-3.6q-9.8 0-19.5-1.9-4.1-.6-8.2-.4-5.8 0-11.5-1a53 53 0 0 0-11.2-1q-7.4 0-14.6-1-6.6-1-13.3-1.5a671 671 0 0 1-108.4-17.6 700 700 0 0 1-71.5-20.8c-21.6-7.1-42.7-14.6-63.5-23.9l-19-8q-13-5.2-25.3-11.9-7.7-4.1-15.6-7.7-11.3-5.3-22-11.7-6-3.8-12.6-6.8c-7.9-3.9-15.1-8.8-22.5-13.5l-7.5-4.7q-12-7.3-23.1-15.7l-9.3-6.8q-13.4-9.6-26.2-19.6l-6.7-5q-11.7-8.8-22.6-18.5-5.2-4.5-10.7-8.8-7.3-6-13.8-13-3.2-3-6.7-5.6-7-5.6-13.4-12l-2.3-2.4-12.1-12a152 152 0 0 1-19.5-22.3c-2.4-3.3-5.1-5.8-8.2-8.3-4.4-4-8.2-7.9-11.7-12.7a92 92 0 0 0-6-7q-5.9-6.4-11-13.5-3.7-4.7-7.8-9.2-5.1-5.8-9.3-12.3-4.4-6.4-9.2-12.3-6.8-8.8-13.4-17.9l-1.7-2.4q-5.9-8.1-10.8-16.8-3.7-6.3-7.8-12.5a759 759 0 0 1-41.5-73.5l-6.4-12.3q-4.7-9.3-8.7-18.8-1.8-4.4-4-8.7c-11-22-19-45.5-27.1-68.6l-.8-2.2a616 616 0 0 1-16.4-53.4 1163 1163 0 0 1-12.4-55.3c-11.8-56-11.8-56-13.2-84.3 0-3.2 0-3.2-1.2-6.2l-.2-4.2-.1-2.6-.2-5.2q-.3-7.7-1.3-15.5C1 807 .8 795.6 1 784l.2-13.7c0-3.4 0-6.1-1.1-9.3l-.1-5v-2.5c.1-2.5.1-2.5.6-4.4.5-2.2.6-4 .6-6.2v-5.1l-.2-14.4c-.1-10.8 0-21.3 1.6-32q.8-6.6 1-13.3.3-10.8 2.4-21.4 1.3-6.8 1.6-13.8.7-11.8 2.8-23.4l.3-2.1q2.5-16 6.2-31.9l3-14.4A620 620 0 0 1 38 500l3.2-10.8q4-13.5 8.9-27l3.6-10.6a587 587 0 0 1 23-56.4q3.3-7 6.2-14.3 6.1-14.6 13.7-28.4l5-9.4q6-11.7 12.4-23.3l1.4-2.6 4.5-8.1c1-1.6 1-1.6 1.8-3.3q6.5-11.4 14-22.4l5.8-8.8 1.2-1.7q4.6-6.8 8.8-13.7 5.1-8.4 11.3-16.3 3-4 5.8-8a611 611 0 0 1 30.4-39q4.8-6 10-11.7l5.2-6a180 180 0 0 1 13-13.2l1.3-1.2c1.5-1.8 1.5-1.8 3-4.3 3.1-4.7 7.2-8.5 11.2-12.4l2.5-2.6 19-19 2.5-2.4q7.5-7.4 15.8-14 4.4-3.6 8-7.7a80 80 0 0 1 11.4-9.7q3.6-3 7-6.5a101 101 0 0 1 11.7-10.4l7-5.5a271 271 0 0 1 39.2-26.5q5.5-3.4 11.1-6.7l3.3-1.9c6.1-3.4 11.6-5.6 18.7-4.1"/><path fill="#6e28be" d="M985 .5c7.6.8 15.2.8 22.7.9a744 744 0 0 1 81.8 6 648 648 0 0 1 63.5 10.7 822 822 0 0 1 67.1 16q29 8.4 57.2 19l3 1c18.7 6.9 37 14.3 54.7 23.4l8.7 3.8c6.2 2.5 12.1 5.7 18 8.8q6.6 3.6 13.3 6.8a268 268 0 0 1 22.6 12.6q7.5 4.6 15.5 9 19.5 11 37.7 24.1 7.1 5 14.6 9.7a124 124 0 0 1 15 10.5q5 4.2 10.4 8a517 517 0 0 1 39.7 32q3.7 3.2 7.6 6.2 6 5 11.4 10.6 3 2.8 6.4 5.4c6 4.5 11.2 9.8 16.5 15.1l28.2 28.2a125 125 0 0 1 14.3 16.1q2.3 3.2 5 6.1l2 2.3 2.1 2.2q6.5 7.1 12.3 14.9l4.6 5.4q5.2 6.1 9.9 12.7 5.4 7.3 11.1 14.4l8 10.8q5.5 7.8 10.7 15.7 2.4 3.9 5.3 7.4 4.8 6.4 8.8 13.2l2 3 7.6 12.1q6.6 10.7 12.5 21.8 3.7 6.9 8 13.6a244 244 0 0 1 13 24.3l15.4 30.8a312 312 0 0 1 11.8 26.6l7 17.3.8 2a942 942 0 0 1 44.4 146q3 12 5 24.4l.5 3q1.4 8.6 2 17.3a13 13 0 0 0 1.3 5.3l.7 8.4c.2 2.7.2 2.7 1.3 5.6l.7 8.4c.2 2.7.2 2.7 1.3 5.6l.5 7.4a49 49 0 0 0 1 9.6c.8 3.4.8 6.9 1 10.4l.2 4.4.1 2c.2 2.3.2 2.3.7 5q.8 5.7.8 11.5v2.3l.3 9.9.2 9.5q0 4.5.7 8.8c.7 4.7.6 9.3.6 14v29.4q.1 6.9-1.1 13.8l-.3 7.4v2l-.4 15.2-.1 3.9q-.3 4.8-1.2 9.5l-.3 5.3v2.9l-.3 6-.1 2.8-.1 2.6q-.3 3.3-1.2 6.4l-.4 7a179 179 0 0 1-2.3 21l-1.3 8-.4 2.5a754 754 0 0 1-15 74.2c-8.4 34.2-17.2 68-30.5 100.6l-5.7 15q-11 28.8-24.4 56.7l-1.5 3.1q-7.4 16.5-16.3 32-3.5 6.2-6.7 12.5-5.9 11-12.5 21.7l-4.3 7.5a643 643 0 0 1-39 58.4 761 761 0 0 1-50.9 64l-1.4 1.6-6.3 7.6a240 240 0 0 1-21.8 23.5l-25.2 25.2q-8.9 9-18.8 17a126 126 0 0 0-8 7.2q-9.9 8.9-20.5 17.2l-7.2 6a312 312 0 0 1-52.2 35.2q-5.3 2.9-10.3 6.1a17 17 0 0 1-9.8 2.3h-2.4l-1.9-.1c-.6-5.5 1.3-8.6 4.5-12.9l1.4-1.8q4.6-6.3 10.3-11.5 2.6-2.7 4.8-5.8 3.1-4.4 7-8 3.7-3.5 6.6-7.6c3.6-5 8-9 12.3-13.3q5.4-5.1 9.7-11.3 2.6-3.1 5.4-5.8 4.7-4.5 8.4-10 4.6-5.7 9.6-11 20.1-22.5 38.3-46.7l6.5-8.5a1402 1402 0 0 0 24.7-32.8l4.3-5.7q8.2-10.7 15-22.4 5.7-9.4 12-18.5a313 313 0 0 0 14-22.8 853 853 0 0 0 54.2-103.8c7.5-16 13.4-32.6 19.3-49.2l4.4-12q7.1-19.4 13-39.3l.7-2.3a726 726 0 0 0 16.2-66.7 917 917 0 0 0 11-66.4 203 203 0 0 0 2.2-26.7v-2.1q.4-3.1 1.2-6.1l.3-4.2v-2.4l.2-2.4.2-4.8.1-2.2c.2-2 .2-2 .7-3.7.7-3.2.6-6.4.6-9.7v-63.4c0-3-.1-5.3-1.1-8.2l-.3-6.2V858l-.2-3.9-.2-7.6-.1-3.4a52 52 0 0 0-1.2-8.1l-.4-6q-.7-10.2-2.4-20.2-1.2-7.5-2-15.1-2-14.8-4.9-29.3l-.5-2.8A826 826 0 0 0 1717 669a525 525 0 0 0-32.1-86 611 611 0 0 0-35.6-70.7A582 582 0 0 0 1598 433q-4.6-6-9-12.1-5.5-8-11.8-15.3l-6-7.5a625 625 0 0 0-38.3-43.3c-8.3-8.2-8.3-8.2-10.9-11.4a41 41 0 0 0-5.5-5.5c-6-5.1-11.3-10.8-16.8-16.4-5-5.2-10-10.1-16-14.3a68 68 0 0 1-6.1-5.1l-2.3-2.1-2.2-2q-13.6-11.9-28-22.5-6-4.4-11.7-9.2-8-6.5-16.7-12.2l-8-5.5a1065 1065 0 0 0-24.9-16.8 374 374 0 0 0-29.8-17.3l-8.4-4.5a722 722 0 0 0-87.2-40.5q-12.3-5-25-9.1l-2-.6a808 808 0 0 0-115.1-28.2l-2.3-.4a236 236 0 0 0-26.7-3q-4.2-.3-8.2-1.2-5 0-9.8.2-5.2-.1-10.2-1.2c-7.4-1.2-14.7-1.2-22.2-1-7.8.2-15.1.2-22.8-1.5q-3.7-.8-7.4-.7h-2.5c-2.3.1-2.3.1-5.1 1.2l-5 .2h-6.3l-3.4.1-24.8.4h-3.2l-3.1.1h-2.7q-3.8.4-7.5 1.2l-4.3.3h-2.3l-4.9.3-2.3.1-2.2.1q-3 .4-6 1.2l-5.7.5a456 456 0 0 0-73.5 14A698 698 0 0 0 710 188.7q-6.1 3-12.6 5.3-4.8 2.2-9.2 5.2-6 3.5-12.4 6.7a595 595 0 0 0-124.2 88q-5.2 4.4-10.8 8.7a82 82 0 0 0-7.8 8.2q-5.3 6-11 11.4l-2.4 2.4-9.2 9a148 148 0 0 0-7.8 8.9q-5 6-10.5 11.5a310 310 0 0 0-23.9 29.7L461 393c-25.3 31-48 70-62.7 107.2q-2.1 5.1-4.6 10.1c-5.4 11.4-9.8 23-14.1 34.9l-1 3a519 519 0 0 0-17.2 59.7q-6.9 28-10.5 56.6l-.5 4q-2 16-2.2 32.3c-.1 2.2-.1 2.2-.6 4.4q-.7 4.5-.6 9v53a28 28 0 0 0 1.1 6.8l.3 5.1v3l.4 9 .1 2.6c.1 2.5.1 2.5 1.2 5.3l.4 5.7q.9 10.5 3.1 20.9l1.6 8c7.7 40.4 18.4 81.2 36.8 118.2l3.7 7.7c10.7 22.9 10.7 22.9 23.6 44.7l5 8.5c7.7 13.3 16 26.5 25.8 38.3l4.2 5.6q9.5 12.6 19.8 24.4l1.5 1.8q5.3 6.2 11 11.7 4.8 4.3 8.6 9.6c4 5.8 9.6 10 14.9 14.6q6.2 5.4 12 11.3 5.9 6.3 13 11.4l5.7 4.8q8.8 7.8 18.3 14.8l1.7 1.3a360 360 0 0 0 31.7 21.2q6.5 4 12.6 8.2c11.3 7.5 23.5 13.1 35.7 18.8l6.7 3.1a448 448 0 0 0 82.3 28.6l8.5 2.2c11.5 3 23.2 5 34.9 6.8l2.4.4 7 1.2 2 .3a239 239 0 0 0 35.8 2.1h2.4l23.5.2c21.3.1 41.8-.4 62.8-4.4l2.6-.5q7.5-1.5 15-3.2l2.3-.5 16.1-3.8 2.2-.5c21.7-5.2 42.2-12 62.8-20.5l3.2-1.3a278 278 0 0 0 45-23.2q10.8-6.2 20.8-13.5l2.7-1.9q8.5-6 16.6-12.9l7.8-6.2q6.2-5 11.7-10.9 3-2.9 6.5-5.3c8.7-6.6 16.4-14.8 22.9-23.6q3.5-4.1 7.4-7.8 5.4-5 9.8-11.2l5.1-6.7q8.2-10.5 15.5-21.5l2.2-3.3c32.3-48.8 56-110.6 56.1-169.6l.1-23.2a239 239 0 0 0-5.2-59c-3.6-19.2-10-36.6-17.7-54.5l-3.7-8.7A245 245 0 0 0 1186 707l-1.3-1.8q-7-9.9-15.7-18.2a54 54 0 0 1-4.7-5.4c-3.3-4-7.4-7-11.5-10q-4-2.7-7.3-6.1c-4.1-4-9-7-13.7-10.3l-5.4-3.7a180 180 0 0 0-25.5-14.6q-4.4-2.2-8.7-4.4a265 265 0 0 0-102.5-26.3c-2.7-.2-2.7-.2-4.7-1.2l-5.4-.1h-3c-2.7 0-2.7 0-5.6 1.1l-4 .4a180 180 0 0 0-108.6 43.5A151 151 0 0 0 807 739l-.6 3a110 110 0 0 0 17.3 80.6q3 3.9 6.3 7.4l1.6 1.8c18 20.2 40 28.2 65.6 34.3l4.4 1q12.7 3.1 25.7 5.5c5.4 1 10.3 2.6 14 7a23 23 0 0 1 3.3 14v2.5A39 39 0 0 1 939 915l-1.3 2.3A102 102 0 0 1 912 944l-2.8 2.2c-23.1 17.6-56 22.5-84.4 19.1-27-3.7-53.8-11.8-75.8-28.3l-2.8-2q-14.7-10.2-27.2-23l-2.4-2.4q-6-6-11.6-12.6l-2.4-2.7a224 224 0 0 1-29.3-46.8l-3.2-6c-4.3-8.2-7.3-16.7-10.1-25.5l-.8-2.4a249 249 0 0 1-8.8-40l-1-6.6c-1.5-9.2-1.6-18.4-1.6-27.7v-2c0-12 0-12 1.2-16.3l.3-5.8c1.3-35.6 13.3-69.4 28.7-101.2l1.1-2.3c6.8-14.2 15.8-27 24.9-39.7q.7-1.2 1.7-2.4a236 236 0 0 1 29.6-33.3c7-6.9 13.8-13.5 21.7-19.3l4.7-3.8c48-38.3 107.5-60.9 167.5-71.5l2.6-.5a278 278 0 0 1 50.6-3.6h22.4a298 298 0 0 1 83 9l2 .4a365 365 0 0 1 82.8 32.7q5.8 3 11.5 5.8c8.2 4 16 8.8 23.9 13.5l2 1.2a302 302 0 0 1 32 22.3q10.2 7.9 20 16.5l1.9 1.6q8.8 7.8 17.1 16.4l13 12.8 2 2q6 5.9 10.7 12.4l4.1 5q6.5 7.6 12.2 15.8l1.2 1.7q7.8 10.4 14.3 21.4 3 5 6 9.7a382 382 0 0 1 62.2 175.8c.2 2.5.2 2.5 1.3 5.4l.7 10c.2 3 .2 3 1.3 6l.5 6.9c.3 4.8.3 4.8 1 9.5a44 44 0 0 1 .7 11.3v26.4a345 345 0 0 1-2.2 42.9l-.3 2.7c-5.1 43-11.7 87-28 127.3l-2.4 6.7c-5 13.7-11.2 26.5-17.8 39.4l-4.8 9.6c-7.8 15.8-17 30.6-26.7 45.3l-1.6 2.4a397 397 0 0 1-49.8 64q-4.4 4.5-8.7 9.7a200 200 0 0 1-27.2 26.7q-4.2 3.5-8.2 7.2a386 386 0 0 1-29.5 24l-1.8 1.4a648 648 0 0 1-59.2 38.6l-19 10-2.6 1.3q-23.2 11.8-47.4 21.7l-3 1.3a539 539 0 0 1-113 31.9l-12.8 2.4a174 174 0 0 1-22.8 3.2c-2.5.1-2.5.1-5.4 1.2l-4.2.3h-2.5l-2.6.2-5 .2-2.3.1c-2.5.2-2.5.2-5 .7a79 79 0 0 1-13 .8l-36 .5-15.2.3c-8.4.1-16.5 0-24.8-1.7q-5-.7-10-.4c-5.4.2-10.3-.5-15.6-1.5q-5.2-.9-10.4-1.3c-31.8-3.3-63.5-10-94.4-18.2l-3.6-1a520 520 0 0 1-56.3-18.7A559 559 0 0 1 546 1338l-2.7-1.5a480 480 0 0 1-33.3-19.9l-14.5-9q-6-3.8-11.4-8l-6.8-5c-1.1-1-1.1-1-2.4-1.8l-2.4-1.8c-29.6-21.7-29.6-21.7-38.3-30.8q-5-4.8-10.5-9a238 238 0 0 1-13.4-11.7q-8.2-7.1-16-15l-2.4-2.4q-6.4-6.2-11.6-13.4a47 47 0 0 0-5.7-6.1 96 96 0 0 1-9.9-11.4q-2.7-3.4-5.6-6.6-6.4-7-12.1-14.6l-1.3-1.6-4-5.2-1.2-1.6q-2.9-3.7-5.5-7.6-2.7-4.2-5.9-8a449 449 0 0 1-31-47l-4-6.8a331 331 0 0 1-16.2-29.3l-3.6-7.3-5.3-10.6-1.4-2.9a544 544 0 0 1-26.8-66.2 617 617 0 0 1-35.5-168.3q-.4-3.3-1.3-6.6l-.3-4.4V794q-.2-2.6-.3-5.2l-.1-2.5-.1-2.3c-.1-2-.1-2-.7-4-2.8-11.2-1.5-23.8-1.2-35.3l.3-14.4.1-2.6q0-5.9 1.3-11.8l.2-5.8.1-3.3.1-3.6q1-22.7 4.4-45l1.8-14.1a617 617 0 0 1 51-183.2q3.2-7 6-14c5.9-13.6 12-26.7 19.6-39.4q3.8-6.4 7.5-13a640 640 0 0 1 33-53.2l4.3-6.4 1.5-2.2a308 308 0 0 1 24-32.4 733 733 0 0 1 57-66.1l2.8-2.8 12.9-13 7-7 2.6-2.5a128 128 0 0 1 14.2-12.5q3-2.3 5.5-5c3.8-4 8.1-7.2 12.5-10.5l21.2-16.4c18.8-14.9 39-28 59.2-40.9q2.5-1.6 5-3.3c18.4-12 37.6-22.5 57.2-32.3l1.9-1A735 735 0 0 1 710 47l2.2-.8c64.5-22.7 132-37 200.1-42.2l2.2-.2 6-.5c3.4-.2 3.4-.2 6.4-.8q5.8-.8 11.6-.8h2.4l10.2-.3 7.5-.1h2.3c8.3-.3 15.8-1.9 24.2-.8"/><path fill="#7a25c6" d="M1172 1564c-30.6 24.5-87.2 33-124.8 41.5l-6.4 1.5c-31.6 7.3-64 12.8-96.3 16l-2.4.3c-17.8 1.8-17.8 1.8-26.5 1.6q-6.6.1-13.3 1.1-8.1 1.2-16.4 1-7.4-.2-14.6 1c-7.5 1.1-15 1.2-22.5 1.3h-3.6q-9.8 0-19.5-1.9-4.1-.6-8.2-.4-5.8 0-11.5-1a53 53 0 0 0-11.2-1q-7.3 0-14.5-1-10-1.4-20.2-2.2a583 583 0 0 1-44.1-5.8v-1l7.8-.2h2.1c4.5-.1 8.5.5 12.9 1.6a93 93 0 0 0 19 2.7l3.6.3q18 1 36.4 1.4c20.6.6 20.6.6 27 1.7 5.8.8 11.5.6 17.3.6h3.9a3643 3643 0 0 0 78.2-.6h3.7c3.4-.5 5.2-1.6 8.1-3.5a76 76 0 0 1 7.8-.6c4.4.2 4.4.2 8.2-1.4q2.6-.4 5.2-.6l3.3-.4 3.5-.4q13.5-1.3 26.8-3.9l10.3-1.5q14.9-2.3 29.3-5.8l3-.7q26-5.7 51.6-12.7l2.7-.7c25.6-7.2 58.3-26.7 84.3-26.3"/><path fill="#812dbe" d="M2 693h1v1.7l.7 33.4v5.7l.1 2.4c0 1.8 0 1.8 1.2 2.8v21.3a946 946 0 0 0 1 59.2q.6 10.8 2 21.5l.4 7.8c1.7 28.8 7.8 57 13.9 85.2l3 15q3.6 18 8.2 36l.8 3.1a606 606 0 0 0 19.3 62.4l13 36q2.6 7.5 6.2 14.7c2.8 5.9 4.3 10.1 4.2 16.8a37 37 0 0 1-5.3-9.1l-1.4-3.1-1.4-3.4-1.4-3.5a844 844 0 0 1-17.1-45L43 1033l-1-2.7a728 728 0 0 1-23.6-93.8c-11.8-56-11.8-56-13.2-84.3 0-3.2 0-3.2-1.2-6.2l-.2-4.2-.1-2.6-.2-5.2q-.3-7.7-1.3-15.5C1 807 .8 795.6 1 784l.2-13.7c0-3.4 0-6.1-1.1-9.3l-.1-5v-2.5c.1-2.5.1-2.5.6-4.4.5-2.2.6-4 .6-6.3v-8L1 723c-.2-21.4-.2-21.4 1-30"/><path fill="#8d4ad5" d="M106 534a215 215 0 0 1-4.7 28.6L99 573.3a527 527 0 0 0-4.2 26l-.5 3.5a270 270 0 0 0-2.1 19.8C92 625 92 625 91 628l-.3 4.5v2.6l-.2 2.8q-.2 7.6-1.5 15.1l-.6 11.7c-.3 6.1-.3 6.1-1.4 8.3l-.1 4.2V776c0 2.2 0 2.2 1.1 5l.4 6.9.2 5.2.1 2.6.1 2.3c.1 2.2.1 2.2 1.2 5l.6 10.2q.1 4.5 1.4 8.8l.6 9.6c.2 3 .4 5.5 1.4 8.4l.4 6c.5 10.8.5 10.8 3.6 21a76 76 0 0 1 2 19h-1v-6h-2q-2.8-10.8-4-22l-1-2-.7-6-.4-3.9-.4-4-.2-2q-1.5-13.7-2-27.3c0-4.3-.9-7.8-2.3-11.8q-.7-4-1-8l-.3-2.3q-1-11.3-1.4-22.4v-2.7l-.1-2.4c-.1-2.2-.1-2.2-.7-4-.6-2.5-.6-4.6-.6-7.1v-36.9Q81.8 708 83 701q.3-4.3.2-8.6l.1-7.7c.3-13.7.8-27.1 3-40.7q1.1-8.4 1.6-16.8 1.1-15.7 3.7-31.2l.3-2.3c2-12.5 2-12.5 3.1-13.7l.9-6q1.5-11.2 3.7-22.2l1.2-6.4 1.5-7.7.7-2.7c2-1 2-1 3-1"/><path fill="#7226bd" d="m1439 1375 3 1a286 286 0 0 1-22.4 23.6l-12 12.1-2.3 2.2a126 126 0 0 1-13.4 11.6 53 53 0 0 0-6.3 6q-5.7 5.6-12.2 10.6l-6.5 5.6q-7.1 6.3-15 12l-11 8.6a462 462 0 0 1-33 23.6l-2.5 1.7a788 788 0 0 1-64.6 38.8 573 573 0 0 1-52.6 25.8l-3.2 1.4-3 1.3-2.6 1.2q-3.2 1.2-6.4 1.9l1-3c2-.7 2-.7 4-1v-2l3.4-1.5c31.2-13.8 31.2-13.8 61.6-29.5l2.3-1.3q9.4-5.2 18.7-10.7l2.8-1.6a689 689 0 0 0 44.8-28.6l2.1-1.5 4-2.7c11.3-7.8 11.3-7.8 16.3-8.6v-3c4.2-4 4.2-4 8-4l1-3h3v-2l2-2h3v-2h3v-2h3v-2h2l.8-1.8c1.3-2.3 2.4-3.5 4.4-5.2l1.9-1.6 2-1.7 4.2-3.5 2-1.7 5.8-5.1 6.4-5.4c11-9 20.9-19.1 30.9-29.2l7.3-7.4z"/><path fill="#6e0bc2" d="m716 1615 7.8-.2h2.1c4.5-.1 8.5.5 12.9 1.6a93 93 0 0 0 19 2.7l3.6.3q18 1 36.4 1.4c20.6.6 20.6.6 27 1.7 5.8.8 11.5.6 17.3.6h3.9a3727 3727 0 0 0 69.2-.5h2.4l10.4-.3c3-.3 4.4-1 7-2.3 2.7-.2 2.7-.2 5.9-.2h6.8l3.6.1 8.7.1v1c-33 4.1-33 4.1-44.4 4q-6.6 0-13.3 1-8.1 1.2-16.4 1-7.4-.2-14.6 1c-7.5 1.1-15 1.2-22.5 1.3h-3.6q-9.8 0-19.5-1.9-4.1-.6-8.2-.4-5.8 0-11.5-1a53 53 0 0 0-11.2-1q-7.3 0-14.5-1-10-1.4-20.2-2.2a583 583 0 0 1-44.1-5.8z"/><path fill="#7e27d1" d="M569 1577q9.7 1 19.3 3.5l3 .8q11.7 3.2 23.4 7a744 744 0 0 0 88.1 21.2 26 26 0 0 1 11.2 4.5v1q-13.9-.9-27.6-3.9l-2.2-.4a686 686 0 0 1-95.9-26.3L569 1578z"/><path fill="#802ed4" d="M366 1472c5 1.2 8.6 2.7 12.9 5.7l3.2 2.2 1.8 1.2 9 6.1 1.9 1.3a513 513 0 0 0 51.7 30.5 388 388 0 0 0 35 18l7.6 3.8 2.3 1 2.1 1.1 2 1c1.9 1.4 2.6 2.9 3.5 5.1a83 83 0 0 1-16.9-7.1q-9-5-18.5-9.3-11.3-5.3-22-11.7-6-3.8-12.6-6.8c-7.9-3.9-15.1-8.8-22.5-13.5l-7.5-4.7q-12.2-7.4-23.5-16l-6.7-4.9-2.8-2z"/><path fill="#4f1985" d="M716 1494c5-.1 9.4.4 14.3 1.4q8.2 1.8 16.5 2.4c2.2.2 2.2.2 5.2 1.2a114 114 0 0 0 11.5.5l9.1.3c2.4.2 2.4.2 5.4 1.2l4 .2h5.2l2.7.1 20 .4h2.6l2.4.1h2.2c1.9.2 1.9.2 4.9 1.2l5.5.1h16.2c2.3 0 2.3 0 4.3-1.1q3.9-.4 7.7-.6l2.3-.2c10.4-.4 20.7.2 31 .8v1l-3.5.1-4.6.3h-2.3l-2.3.2h-2c-2.4.3-2.4.3-5 1.4a33 33 0 0 1-12.3 1.3H800c-2.9-.3-2.9-.3-5.9-2.3l-8.4-.3H783l-8-.2q-19.7-.1-39-2.5v-2q-5-1-10-1c-3.7.1-6.6-.6-10-2z"/><path fill="#732dba" d="m1439 1375 3 1a286 286 0 0 1-22.4 23.6l-12 12.1-2.3 2.2a126 126 0 0 1-13.4 11.6 53 53 0 0 0-6.3 6q-5.7 5.6-12.2 10.6l-6.5 5.6q-7.3 6.4-15 12-6 4.5-11.7 9.2l-2.4 2-4.6 3.6a28 28 0 0 1-14.2 6.5 26 26 0 0 1 15-9v-3c4.2-4 4.2-4 8-4l1-3h3v-2l2-2h3v-2h3v-2h3v-2h2l.8-1.8c1.3-2.3 2.4-3.5 4.4-5.2l1.9-1.6 2-1.7 4.2-3.5 2-1.7 5.8-5.1 6.4-5.4c11-9 20.9-19.1 30.9-29.2l7.3-7.4z"/><path fill="#733ea8" d="M1482 806c4.9 9.3 4.5 19.9 5 30l.4 9.1.2 2.3q.4 7.4 1.5 14.7 1.3 11.2.6 22.6l-.4 11.6v2.4q-.5 15-.3 30.2c0 7 0 14-1 21.1h-2l-1 17-2 1-.1-5.2-.1-3q.3-4.7 1.2-9.3c1.2-7 1.2-13.9 1-21-.3-22.7-.3-22.7 2-29.5l.1-8.3v-12.5c0-2.2 0-2.2-1.1-4.2-1.4-9.5-1-19.3-1-28.9v-3l.1-2.8c0-2.5 0-2.5-1.1-5.3q-.7-3.8-1-7.4l-.3-2.1q-1.1-9.7-.7-19.5"/><path fill="#8f71b3" d="M2 693h1v1.7l.7 33.4v5.7l.1 2.4c0 1.8 0 1.8 1.2 2.8l.1 6.4v38.1L5 808H4v17H3a291 291 0 0 1-2-49.5v-5.2c0-3.4 0-6.1-1-9.3l-.1-5v-2.5c.1-2.5.1-2.5.6-4.4.5-2.2.6-4 .6-6.3v-8L1 723c-.2-21.4-.2-21.4 1-30"/><path fill="#7a27c9" d="M302 146h3q-2 4.4-5.2 8.2l-2.2 2.6-6 7.2q-8.9 10.7-17.3 21.8l-8.9 11.8a654 654 0 0 0-17.2 23A320 320 0 0 0 228 250h-1v-5l3-1c.7-2 .7-2 1-4h2l.2-2c1-4 3.2-6.9 5.5-10.1l1.5-2.1a977 977 0 0 1 35.4-47.3q6.9-9 14.3-17.7l1.6-2 1.6-1.8 1.4-1.6c1.5-1.4 1.5-1.4 3.6-2.5 2.1-.7 2.1-.7 2.6-2.9q0-1 .3-2z"/><path fill="#7c2dc1" d="m165 240 1 2c-2.2 6.5-6 11.9-9.8 17.6l-4 6.1-2.2 3.2-16 25.1-1.7 2.7A429 429 0 0 0 112 332h-3v3h-2a242 242 0 0 1 25-46l1.6-2.5 7.2-10.7q5.4-8 10.5-16.4 6.3-10 13.7-19.4"/><path fill="#9467cd" d="M85 676h1v3.9l.8 88.4v7.7c.1 2.2.1 2.2 1.2 5l.4 6.9.2 5.2.1 2.6.1 2.3c.1 2.2.1 2.2 1.2 5l.6 10.2q.1 4.5 1.4 8.8l.6 9.6c.2 3 .4 5.5 1.4 8.4l.4 6c.5 10.8.5 10.8 3.6 21a76 76 0 0 1 2 19h-1v-6h-2q-2.8-10.8-4-22l-1-2-.7-6-.4-3.9-.4-4-.2-2q-1.5-13.7-2-27.3a27 27 0 0 0-1.3-8.5c-2.7-8.6-2.1-18.2-2.1-27v-61.7z"/><path fill="#5301a8" d="M424 688h1a692 692 0 0 1 1.5 50.8l.2 12.9q.4 28.6.3 57.3h-1c-1-5.3-1-10.3-1-15.6.2-2.4.2-2.4-1-4.4l-.4-6.4-.1-2.5-.2-5-.1-2.1c-.1-2.2-.1-2.2-1.2-5l-.1-5.5v-48.9a28 28 0 0 1 1.1-6.6l.4-7.1.2-2.6v-2.7z"/><path fill="#762abe" d="M1590 1128h2c-6 29.3-21 57.2-34.2 83.8l-1.5 3.2q-8.8 18-19.3 35c-1.2-3.6-.7-4.2.9-7.6l1-2.3 2.1-4.1h2q0-1 .3-2c1-4 2.6-7.2 4.5-10.8l1-2.2q3.3-6.2 7-12.2a108 108 0 0 0 9.2-19.5c1-2.3 1-2.3 2.5-4.8q2.1-3.7 3.5-7.9 2.4-7.4 6-14.3a82 82 0 0 0 6-16q2.1-6.9 5-13.3h2z"/><path fill="#6e18a6" d="m299 94 2 1c-3.4 6.3-8.7 10.4-14 15l-2 1.8c-3.6 3.2-3.6 3.2-7 3.2l-2 5h-2l-.8 1.8c-1.3 2.5-2.9 4.1-4.9 6.1l-2.3 2.3-2.5 2.5-2.5 2.6L242 154l-2.4 2.5Q233 163 226 169l-2-1 7-8 1.5-1.7q6.6-7.5 13.7-14.6l2.3-2.4 12-12.1c7.2-7.2 14.3-14.2 22.3-20.5q4.4-3.5 8.2-7.6c2.6-2.7 4.9-5 8-7.1"/><path fill="#7721cb" d="M152 385h2q-3 11.9-7.8 23a846 846 0 0 0-29.2 86h-1c-.7-8 1.7-15.3 4-23l.8-2.7A762 762 0 0 1 149 390h2z"/><path fill="#56069d" d="M19 577c1.1 3.4 1 6.2.6 9.8l-.3 3-.3 2.2h-2v2.8c-.4 11.8-2.1 23.2-4.2 34.8q-2 11.6-2.6 23.3-.2 3.6-1.2 7.1l-.4 6.8a344 344 0 0 1-1.7 19.1c-.2 2-.2 2-.9 5.1l-3 2c.3-13 .7-25.7 3.3-38.5q1-5.7 1.2-11.6.7-11.7 2.8-23.4l.3-2c4.6-29 4.6-29 8.4-40.5"/><path fill="#693898" d="M1628 959h2v10.8c.1 6 .1 6-1 8.2l-.5 5c-.4 4.8-.4 4.8-1.5 7l-.5 5c-.4 4.8-.4 4.8-1.5 7l-.7 6a290 290 0 0 1-6.7 34.5l-7.6 30.5h-1l-.1-5.8-.1-3.3c.2-2.9.2-2.9 2.2-5.9l1.4-7a512 512 0 0 1 4.2-21.2c1.2-5.6 1.2-5.6 3.4-7.8q.4-4.4.5-8.7c.2-5.8.9-10.7 2.5-16.3q.7-4.8 1-9.7a243 243 0 0 1 4-28.3"/><path fill="#5f0bb2" d="M85 652h1c1 4.4 1.1 8.6 1.1 13.1v2.2c0 3.2 0 5.7-1.1 8.7l-.2 4.4v8.9l-.3 36.5-.2 19.3L85 783h-1v-2l-.4-8.7-.2-3.1v-3l-.2-2.7c-.1-2.4-.1-2.4-.7-4.3q-.7-3.6-.6-7.1v-36.9Q81.8 708 83 701l.3-9v-2.6l.5-21.4q0-8 1.2-16"/><path fill="#9649d4" d="M788 1189h3.4l95.6 1v1c-33.7 4.4-33.7 4.4-49 4.4h-3c-5.3-.1-10-.7-15.2-1.9-6-1.1-12-1.5-18-2.1L788 1190z"/><path fill="#8e41d9" d="M289 1410c2.6 0 4.4.5 6.4 2.2l1.5 1.7a89 89 0 0 0 10.8 9.4 671 671 0 0 1 21.8 17.8q6.6 5.6 13.6 10.7l2.8 2 5.5 4 2.6 2 2.3 1.6 1.7 1.6v3q-4.3-2-8.2-5l-2.4-1.7-2.5-2-2.6-1.8q-12-8.9-23.3-18.8l-8.8-7q-4.7-3.7-9.2-7.7l-2-1.8c-3.8-3.1-7.1-6.2-10-10.2"/><path fill="#792ac3" d="m224 250 3 1-1.9 3q-6.6 10.4-12.7 21.1a251 251 0 0 1-10 16.6q-4.9 7.7-9.3 15.7-3.8 7-8.1 13.6c-1-2.7-1.1-3.7 0-6.4q.8-1 1.4-2.4l1.5-2.4 1.1-1.8h2l1-6h2l.3-2.1c.8-3.5 2.3-6 4.1-9.1l1-1.8 5.8-9.7c15.3-25.8 15.3-25.8 18.8-29.3"/><path fill="#68299f" d="M1007 1155c-16.7 11.2-38 16.3-57 22.4l-12.4 3.9c-3.3.9-6.1 1-9.6.7 2.7-3.4 6.2-4.2 10.2-5.4l4.3-1.3 2.3-.6 6.4-2a87 87 0 0 1 26.8-5.7v-2l6-2.3c2-.7 2-.7 5-.7v-2l3.8-1.5 2-.8c2.2-.7 2.2-.7 6.2-.7v-2c3-1 3-1 6 0"/><path fill="#8c4bcf" d="M3 802h1q2.2 12.5 2.7 25.3.2 6.9 1.3 13.7l.4 7.8q.6 9.6 1.6 19 0 1.1.3 2.3c.4 4 .4 4 1.2 8 .8 3.3.6 6.5.5 9.9a28 28 0 0 1-5-14.2l-.3-2.2q-1-9.6-1.5-19.4c0-3.2 0-3.2-1.2-6.2q-.2-3.1-.3-6.4l-.1-3.8-.1-2-.2-6Q2.8 814.8 3 802"/><path fill="#5b298b" d="M638 1137c6.5.4 11.3 3 17 6v3h4v2l2.5-.2a20 20 0 0 1 9 3q4.6 2.1 9.4 3.6 7.7 2.7 14.8 6.5 4.5 2.1 9.4 3.3c2.2 1 3.3 2 4.9 3.8-2.8 1.4-3.8.7-6.7-.3-9.4-3.3-18.4-7.4-27.5-11.5l-7.5-3.2q-11.4-4.8-22.3-11l-2.2-1.3-4.8-2.7z"/><path fill="#a95fe8" d="m811 1624 5.6.2h7.3l6 .2 10.3.1 20 .3q8.9 0 17.8 1.2v1c-9.7 1.9-19.3 2.2-29.2 2.3h-3.5q-9.9 0-19.6-1.9-4.1-.6-8.2-.4c-6 .1-11.6-.9-17.5-2v-1c7.6-1.1 7.6-1.1 11 0"/><path fill="#643696" d="M594 680h2v4.4l.1 2.4c-.1 2.2-.1 2.2-1.1 4.2l-.5 7c-.4 6.8-.4 6.8-1.5 9l-.3 10-.2 19.8-.2 11.5-.3 22.7h-2l-.1-64.2c.1-2.8.1-2.8 1.1-4.8l.8-7.2.2-2.8.5-5.5.2-2.5c.3-2 .3-2 1.3-4"/><path fill="#47027f" d="m1003 1611-1 2h-3v2a273 273 0 0 1-63 5v-1l3.2-.2 4.2-.2 2.2-.2c3.5.1 3.5.1 6.4-1.4q2.6-.4 5.2-.6l3.3-.4 3.5-.4q13.8-1.4 27.4-4 5.8-.9 11.6-.6"/><path fill="#8f56ca" d="M1482 806c4.9 9.3 4.5 19.9 5 30l.4 9.1.2 2.3q.4 7.5 1.5 15 1.4 10.3.5 20.6l-.1 3.3-.5 7.7h-1q-1-8.5-1-17l-1-2c-1.4-9.5-1-19.3-1-28.9v-3l.1-2.8c0-2.5 0-2.5-1.1-5.3q-.7-3.8-1-7.4l-.3-2.1q-1.1-9.7-.7-19.5"/><path fill="#762bb8" d="M76 397h1c.1 5.8.1 5.8-1 8h-2l-.2 3.1c-.8 6.6-3.6 12.5-6 18.5l-3 7.2-1.4 3.6-2.7 7.5-.7 2-1.7 5.3c-1.3 2.8-1.3 2.8-3.4 4.2l-1.9.6q3-13 8.1-25.5l1.5-3.7Q68.9 412.2 76 397"/><path fill="#923ae3" d="M236 1357c4.7 1.4 7.2 4 10.3 7.6q7 7.8 14.4 15.2l2 2 14.2 13.9 1.8 1.8 4.3 4.5v2a21 21 0 0 1-9.1-5.7l-2.3-2.3-2.5-2.5-2.6-2.6-18.9-18.9-2.4-2.4c-4-4-7.1-7.4-9.2-12.6"/><path fill="#852cc7" d="M9 883c2 2 2 2 2 5h2l4.5 22c2.6 12.7 4.2 25 4.5 38-2.2-3.8-3-7.9-3.8-12.1l-.5-2.5-1.6-7.8-.6-2.6q-4.1-19.8-6.5-40"/><path fill="#53178e" d="m1005 659 11 1v1q-9 1.2-18.2 1.4A1087 1087 0 0 0 957 665a68 68 0 0 1 48-6"/><path fill="#762fb1" d="m716 1615 7.8-.2h2.1q6.5-.1 12.8 1.6c6.6 1.8 13 2.3 19.7 2.7l7.4.4 3.7.3a539 539 0 0 1 30.5 3.2v1c-6.8 1-13 1-19.7 0a402 402 0 0 0-20.2-2.2 580 580 0 0 1-44.1-5.8z"/><path fill="#782dbf" d="M182 321h2q-2 6-4.6 11.6l-1.6 3.2-1.7 3.4-3.5 7.3-.9 1.8q-7.5 15.8-14.7 31.7h-1c1.4-20.2 16-41.9 26-59"/><path fill="#5b029b" d="m351 52 2 1c-1.5 4.3-4.7 6.2-8.4 8.6q-9 6.3-17 13.3c-6 5-6 5-8.6 5.6-2.6.7-3.9 1.9-5.9 3.7l-2 1.9Q306.8 90 303 94l-2-1c7-7.2 14-14 22-20l4.6-3.7Q339 60 351 52"/><path fill="#9f62d2" d="M940.9 1619.8h6.8l3.6.1 8.7.1v1c-33 4.1-33 4.1-44.4 4q-6.8 0-13.4 1c-7.6 1.1-14.6.9-22.2 0v-1l2.4-.2 3-.2 3.1-.3c2.4 0 2.4 0 3.5-1.3l13.8-.3 16.3-.3h2.5c6-.2 10.4-2.7 16.3-2.6"/><path fill="#8d54bb" d="m1469 747 3 1c1 2.7 1 2.7 1.7 6.2l.7 3.4q.8 4.7.6 9.4h2c3.2 13.1 5.9 25.4 5 39h-1l-.6-3.9a485 485 0 0 0-10.7-49.1c-.7-3-.7-3-.7-6"/><path fill="#6c24b7" d="M817 1022h59v1l-2.7.4-3.6.5-3.6.6c-3.1.4-3.1.4-6.1 1.5q-6.4.3-13 .2h-10.2c-2.8-.2-4.4-.8-6.8-2.2q-3.4-.4-6.7-.6l-3.6-.3-2.7-.1z"/><path fill="#8439bd" d="M149 1249c5 2 8 5.6 11 10l.5 2.6.5 2.4 2 1v3l1.8.2c4.5 1.6 6.8 6.4 9.5 10.1l2 2.6 1.9 2.6 1.7 2.3c1.1 2.2 1.1 2.2.8 4.5l-.7 1.7q-4-3.6-6.7-8.2l-5-6.5q-6.4-8-12.3-16.3l-2-2.8-2-2.8-1.7-2.4c-1.3-2-1.3-2-1.3-4"/><path fill="#7b37bb" d="M395.4 29.6h2.5c2.1.4 2.1.4 4.1 2.4a20 20 0 0 1-5 13h-1c.5-4.5 1.3-7.7 3-12l-12 1v2l-8 4.4-2.3 1.2A52 52 0 0 1 362 47c3.4-3.9 7.3-6 11.8-8.5l2-1.1 8.3-4.6c3.9-2 6.8-3.3 11.3-3.2"/><path fill="#6a10cf" d="m1439 1375 3 1a258 258 0 0 1-16.5 17.6L1404 1415c0-5.3 3.8-8.9 7.3-12.5l3.9-3.9 2-2z"/><path fill="#813fb2" d="m1322 1300 1 2a30 30 0 0 1-6.5 8.5q-4.5 4.6-9 9.6c-11 11.7-11 11.7-13.8 12.7-4 1.8-6.7 5-9.7 8.2l-2-1 13.7-13.8q8.6-8.8 17.7-16.8a53 53 0 0 0 5.6-5.8l1.8-2.1z"/><path fill="#8f5bc8" d="M422 711h1v54h2l1-3q1.3 23.5 1 47h-1c-1-5.3-1-10.3-1-15.6.2-2.4.2-2.4-1-4.4l-.4-6.4-.1-2.5-.2-5-.1-2.1c-.1-2.2-.1-2.2-1.2-5l-.1-9V731z"/><path fill="#7e3fbe" d="M120 964c1.8 2.7 2.7 4.7 3.7 7.7l1 2.9 1 3 1 3.2 7.8 23.4 1 3.1 1 2.9.8 2.5.7 2.3.7 2.2.3 1.8-2 2a501 501 0 0 1-13.7-38.8l-.6-2c-2-5.8-2.8-10.1-2.7-16.2"/><path fill="#804fb9" d="M1185 847h1l.2 2.3.2 3 .3 3c.2 2.8.2 2.8 1.3 5.7l.1 7.3v36.6c-.1 2.1-.1 2.1-1.1 5.1l-.3 4-.1 2.3-.2 2.4v2.4l-.4 5.9h-1z"/><path fill="#8147c3" d="m874.1 1501.4 14.9.6v1l-3.5.1-4.6.3h-2.3a33 33 0 0 0-9.6 1.6c-4 1.3-7.5 1.3-11.7 1.2h-2.5q-13.5-.2-26.8-1.2v-1l3.9-.2 5-.2 2.5-.2h2.5l2.2-.2c2-.1 2-.1 3.9-1.2 8.6-1.6 17.4-1 26.1-.6"/><path fill="#6f37a4" d="M1621 1012h2a145 145 0 0 1-5.9 32l-7.1 29h-1l-.1-5.8-.1-3.3c.2-2.9.2-2.9 2.2-5.9l1.4-7a512 512 0 0 1 4.2-21.2c1.2-5.6 1.2-5.6 3.4-7.8.5-2.4.5-2.4.6-5.1l.3-2.8z"/><path fill="#7832b4" d="M8 635h1c.5 41.5.5 41.5-3 56l-3 2a222 222 0 0 1 3-36.8q1.7-10.5 2-21.2"/><path fill="#621fab" d="m783 1502 29.5-.2q7.9 0 15.5 2.2c-3.6 2-6 2.3-10.2 2.3h-18c-2.8-.3-2.8-.3-5.8-2.3-2.7-.5-2.7-.5-5.7-.6l-3-.3-2.3-.1z"/><path fill="#6d23b5" d="M1208.9 1545.8h2.3l1.8.2q-3.9 2.5-8.2 4.4l-3 1.4-3.3 1.5-3.1 1.4-12.6 5.8-3 1.4-2.6 1.2c-2.2.9-2.2.9-4.2.9l1-3c2-.7 2-.7 4-1v-2l1.7-.8 8-3.5 2.7-1.2 2.6-1.2 2.6-1.2q3-1.4 5.7-2.9a14 14 0 0 1 7.6-1.4"/><path fill="#6a21b3" d="m1244 1526 2 1c-7.7 8.2-24.4 18.7-35.9 19.2l-3.1-.2q4.3-3.5 9.6-5.7l10-4.7q7.4-3.3 14-7.5z"/><path fill="#823ab5" d="M999 950c1 2 1 2 .4 4.2a39 39 0 0 1-7.1 9.2l-1.6 1.7-4.7 4.9-1.6 1.7a22 22 0 0 1-9.4 6.3c-1.8 1.5-1.8 1.5-3 3l-2-1 2.4-2.4 20.3-20.1a48 48 0 0 0 6.3-7.5"/><path fill="#4a0385" d="M907 1186c-7.2 7.2-25.1 5-34.8 5H861l-1-2 2.7-.1q10.2-.6 20.2-2c8-1 16-1 24.1-.9"/><path fill="#923ce1" d="M541 1057c5.2 1.3 7.5 3.2 11 7.3l2.8 3.2 1.6 1.7q4.5 4.9 9.3 9.5l1.9 2 4.4 4.3-1 2a130 130 0 0 1-18.4-16.1l-2.7-2.7-2.6-2.6-2.4-2.4c-1.7-2-2.9-3.7-3.9-6.2"/><path fill="#873ec0" d="M202 1319c3.9.5 5.3 2.1 7.8 5l2.1 2.5 2.1 2.5 3.5 4q5.9 6.8 11.5 14l-1 2a91 91 0 0 1-14.7-15.1q-4.6-5.7-9.6-10.9c-1.7-2-1.7-2-1.7-4"/><path fill="#824aae" d="m119 1200 3 1v4h1.8c2.2 1 2.2 1 4 4.4 1.2 3.6 1.2 3.6 1.2 6.6h2l1 4h2l1 3 1.9 1.8q5 5.1 5.1 12.2h2l-1 4a637 637 0 0 1-22.8-36.9c-1.2-2.1-1.2-2.1-1.2-4.1"/><path fill="#3b016c" d="m614 614 2 1-12 36-2-4 1-1 1.3-7.4c1.6-9.2 4.2-17 9.7-24.6"/><path fill="#660cb4" d="m52 457 2 3-1 2-.2 3.3c-.6 5.2-2.6 9.7-4.5 14.4q-2.5 6.6-4.3 13.3h-3c1.3-8.2 3.8-15.8 6.6-23.6l1.3-3.6z"/><path fill="#752ac1" d="M1172 1564a35 35 0 0 1-10.4 5.7l-1.9.7-9.8 3.8c-9.6 3.8-9.6 3.8-11.9 3.8 1-2.8 1.7-3.8 4.4-5.3l3-1.1q6.5-2.6 12.8-5.4c5-2 8.5-2.7 13.8-2.2"/><path fill="#4f2189" d="M1061 675c5 .5 8.5 3 12.7 5.6l2.1 1.4c15.9 10.2 15.9 10.2 21.2 16l-5-1v-2l-2.5-.7a53 53 0 0 1-10.9-5.8l-2-1.2-4.6-3.3v-2l-2.1-.3a36 36 0 0 1-8.9-3.7z"/><path fill="#6c29aa" d="M106 534q-1.2 11.4-3.4 22.4l-.7 3.6-.6 3.4-.6 3.1c-.7 2.5-.7 2.5-2.7 4.5-.5 2.2-.5 2.2-.6 4.6l-.3 2.5-.1 1.9h-1c-.5-8.9 1.1-17 2.9-25.7l2.4-11.9.4-2.2 1.3-5.2c2-1 2-1 3-1"/><path fill="#7b3eb9" d="M115 496c1.3 4 .2 7-.9 11l-.6 2.3L107 534h-1c-.5-8.7 1-16.2 3.4-24.6l1-3.6c1.7-6.4 1.7-6.4 2.6-8.8z"/><path fill="#5d258c" d="M757 1180c3.7.9 3.7.9 7 2v1l3.5.1c9 .5 17.7 1.1 26.5 2.9v1a46 46 0 0 1-24-.2l-3.3-.7c-8.8-2-8.8-2-12.7-4.1z"/><path fill="#8b3adb" d="M366 1472c5 1.2 8.6 2.8 13 5.7l3.1 2.2L397 1490l-1 4c-15.4-10.1-15.4-10.1-21.3-14.7l-5.7-4.1-3-2.2z"/><path fill="#6a3c91" d="M436 852h1l.5 2.7a90 90 0 0 0 5.6 18.8q1.8 5.5 2.4 11.3c.3 2.4.3 2.4 2.5 4.2.2 2.2.2 2.2.1 4.6v2.5l-.1 1.9a43 43 0 0 1-5.6-13.4q-3-8.9-5.3-17.9l-.7-2.3a22 22 0 0 1-.4-12.4"/><path fill="#9b64ce" d="m1164 1420 2 1-2.1 1.2c-3 1.7-3 1.7-5.6 4.1a55 55 0 0 1-13.6 8.2c-5.3 2.6-5.3 2.6-8.7 1.5v-2l22.4-11.7c2.6-1.3 2.6-1.3 5.6-2.3"/><path fill="#9253cf" d="M638 1137c6.5.4 11.3 3 17 6v3h4v2l2.5-.2q6.4.4 11.5 4.2l1 3a84 84 0 0 1-19.7-8l-2.4-1.2-13.9-7.8z"/><path fill="#5b2889" d="M1600 663c2.3 3.5 3.3 7 4.3 10.9l.7 2.3 5.4 19.5q1.8 7 2.6 14.3l-2 1-2.4-9-.7-2.5q-1.7-6-2.5-12c-.2-3.5-.2-3.5-1.8-6.3-2.8-5.7-3.6-12-3.6-18.2"/><path fill="#682cbb" d="m490 1419 1.5.7q16.2 7.7 32.5 15.3v1c-6.1.5-9.8-1-15.2-3.9L497 1426v-2l-2.4-.4c-2.6-.6-2.6-.6-4.6-1.6z"/><path fill="#843ac2" d="m165 240 1 2c-2 5.4-4.8 10-8 14.9l-1.2 2c-3.3 5-3.3 5-6 5.8l-1.8.3v3h-2c3.7-10.3 11.5-19.3 18-28"/><path fill="#a66cd0" d="m274 116 2 1-1.5 1.5-29.6 29.5-2.6 2.6-2.4 2.4-2.1 2.1c-2 2-2 2-3.8 4.9h-2c1.5-3.4 3.3-5.6 5.9-8.1l2.4-2.5 2.6-2.5 2.7-2.7 7-7 7.3-7.2z"/><path fill="#592885" d="M1069 376c15.8-.2 15.8-.2 22 1l2 2 6 .5c2.7.7 3.4 2.3 5 4.5l-12.4-2.4-3.6-.6-19-4z"/><path fill="#6617bd" d="M85 652h1c1 4.4 1.1 8.6 1.1 13.1v2.2c0 3.2 0 5.7-1.1 8.7l-.4 10.2-.2 4L85 704l-2 1 .7-33.5v-2.8q.3-8.4 1.3-16.7"/><path fill="#833bd2" d="M90 626c1.2 2.4 1 3.7 1 6.4l-.2 2.6-.2 2.8-.1 2.7q-.3 6.3-1.5 12.5l-.3 4.4-.1 2.4-.2 2.5v2.5L88 671h-1l-1-14-.2-2.7C85.5 645 87.3 636 89 627z"/><path fill="#5b2b94" d="M586 1461c11 2.3 21.4 6.2 32 10v1c-12-.6-21.4-3.3-32-9z"/><path fill="#7d3cb8" d="M1602 1090h3a266 266 0 0 1-12 38h-1l.4-4.3.3-2.4c.3-2.3.3-2.3 1.3-5.3h2l-.1-2c.1-3.6 1-6.6 2.1-10l1-3.7z"/><path fill="#7f46b5" d="M1184 928c1.7 3.5.5 7.4 0 11.2l-.4 2.8c-1.7 11-5 21.5-8.6 32h-1q1-9 3-18l.5-2.6q1.5-7.8 3.5-15.4h2v-4.4l-.1-2.5c.1-2.1.1-2.1 1.1-3.1"/><path fill="#884dc6" d="M85 778h2c.9 2.7 1.2 4.5 1.3 7.3v2.6q.2 2.6.3 5.2l.1 2.6.1 2.3c.1 2.2.1 2.2 1.2 5l.3 4.4.1 2.6.2 2.7v2.7l.4 6.6c-2.7-2.7-2.3-4.5-2.5-8.2-.2-4.7-1-8.4-2.5-12.8-1.1-7.6-1.1-15.3-1-23"/><path fill="#853fcc" d="M537 1565a62 62 0 0 1 24 6l1 2 2.5 1c2.5 1 2.5 1 3.5 3q-9.6-2.3-18.9-6l-2.9-1-2.7-1.1-2.5-1c-2-.9-2-.9-4-2.9"/><path fill="#5a2c8a" d="M648 1480c21 4 21 4 30 7v1c-11.2 1-21.3-2-32-5l2-1z"/><path fill="#6e2aad" d="M1514 1282h2c-1.5 4.4-4 8-6.7 11.8l-1.3 1.8q-5.3 7.4-11 14.4c-.6-1.8-.6-1.8-1-4 1-1.8 1-1.8 2.4-3.7l1.6-2 1.7-2.2 3.2-4.2 1.6-2q2-2.5 3.8-5.4l1.7-2.5h2z"/><path fill="#6d33a6" d="M1482 806c6.6 12.4 5.1 28.3 5 42h-1a220 220 0 0 1-4-42"/><path fill="#572582" d="M1106 384c8.8-.6 17 .2 25 4a50 50 0 0 1 5 5q-15-3.6-30-8z"/><path fill="#8a5cb5" d="M32 520c1.2 4 .7 7 0 11h-2l-.2 2-1.8 16h-2l.1 1.7c.2 5.6-.5 9.3-3.1 14.3-1-3.3-1-5.5-.2-8.8l.6-2.8.7-3 .7-3.1Q28 533.5 32 520"/><path fill="#7e37c1" d="M1534 1250h2a75 75 0 0 1-6.7 13.2l-1.3 2.3q-5 8.5-11 16.5l-1-4h2v-3h2v-3h2l.4-2.3c.6-2.7.6-2.7 2.6-5.7h2l.9-3.3c1.1-3.7 1.1-3.7 3.1-6.7h2z"/><path fill="#8542b8" d="M1458 713c3 1 3 1 4.4 3.7a38 38 0 0 1 3.6 18.3h2c1.3 2.5 1.1 4.3 1 7.1v4.9q-2.5-5-4.2-10.4l-1.2-3.8-.6-2-1.9-5.9c-3.1-9.6-3.1-9.6-3.1-11.9"/><path fill="#470178" d="m299 94 2 1a34 34 0 0 1-8.3 10l-3 2.6q-4.2 3.8-8.7 7.4l-2-1 6.6-7.2 1.9-2q5.3-6 11.5-10.8"/><path fill="#6817be" d="m360 82 3 1-1.3 1.5-1.8 2-2 2.3-3.5 4.1c-3.4 4.2-6.9 7.1-11.4 10.1.6-4 2.5-6 5.1-8.8l2.5-2.6q4.5-5 9.4-9.6"/><path fill="#9656cd" d="m753 1620 19.1.4c9.5.2 18.6.7 27.9 2.6v1c-7.7 1.2-14.8.7-22.5-.4a357 357 0 0 0-24.5-2.6z"/><path fill="#732bb7" d="M1033 1141c-4.5 4-9.5 6.5-14.8 9.3l-2.7 1.3-6.5 3.4-1-3h2v-2l8.1-4.5 2.3-1.3c4.4-2.4 7.5-3.8 12.6-3.2"/><path fill="#663997" d="M1142 746c5 4.4 8 9.5 11.3 15.2l1.7 2.8c4 6.7 4 6.7 4 9-3.4-1.1-3.6-1.6-5.4-4.5l-1.3-2-1.3-2.3-2.6-4.3-1.3-2.1c-1.1-2-1.1-2-2.9-4.1-1.7-2.4-1.9-4.8-2.2-7.7"/><path fill="#8a52bc" d="M183 216c1 2 1 2 .3 4.4a33 33 0 0 1-4.6 7 196 196 0 0 0-8.3 11.2L169 240h-3c4-8.8 11-16.4 17-24"/><path fill="#651cb3" d="M1405 1409c0 4-1.4 6-4 9q-5.4 4.6-11 9l-7 6-2-2q7-6.4 14.3-12.7 5-4.4 9.7-9.3"/><path fill="#7429b8" d="m1434 1136 1 4h-2l.3 2.4c-.4 5.2-2.8 9-5.3 13.5l-1.4 2.6-3.6 6.5-2-1q2.6-8 6.5-15.7l1.2-2.6q2.3-5 5.3-9.7"/><path fill="#763faa" d="M1007 1155c-4 2.6-8.2 4.4-12.5 6.4l-2.7 1.2C975 1170 975 1170 970 1170v-2l8-1v-2l6-2.3c2-.7 2-.7 5-.7v-2l3.8-1.5 2-.8c2.2-.7 2.2-.7 6.2-.7v-2c3-1 3-1 6 0"/><path fill="#874ec1" d="M994.2 657.8h2.2c3.1 0 5.6.2 8.6 1.2l11 1v1h-45v-1q11.5-2.1 23.2-2.2"/><path fill="#752fb3" d="M999 1614v1l-23.5 4-3.9.5q-5.2.7-10.6.5c1.9-2.5 3-3 6.1-3.7l3.8-.4 2-.3c8.7-1 17.4-1.8 26.1-1.6"/><path fill="#602a8a" d="m1265 1353 2 1-11 11h-2l-.7 1.9c-1.6 2.5-2.7 3.1-5.4 4.3l-2.2 1-1.7.8-2-2 6-4.6 1.8-1.4q5.8-4.5 11.7-8.8c1.7-1.3 1.7-1.3 3.5-3.2"/><path fill="#7b3ab1" d="m78 1117 1 3h2v5h3l2.5 6.1 1.4 3.5c1 3.3 1.3 5.9 1.1 9.4-3.4-4.3-5.5-9-7.7-14l-1.3-2.8-1.2-2.7-1.1-2.4c-.7-2.1-.7-2.1.3-5.1"/><path fill="#8a47ce" d="m1478 1330 3 1-19 23-1-3c1.3-2.2 1.3-2.2 3.3-4.6l1.8-2.4c1.9-2 1.9-2 4.9-3l1-4c1.4-2 1.4-2 3-3.7z"/><path fill="#612b92" d="M657 535h3a44 44 0 0 1-6.4 11.4l-6.8 10-1.8 2.6h-1v-5h2l1-5 3-1v-3h2l.3-2.2a16 16 0 0 1 4.7-7.8"/><path fill="#642f97" d="m677 510 3 1q-9.4 12-19 24l-1-4h2l.3-1.8c.8-2.5 1.9-4 3.6-6l1.6-1.8c1.5-1.4 1.5-1.4 3.5-1.4v-3l2-1 1-3h3z"/><path fill="#863dce" d="M123 466h2q-3.8 14-8 28h-1a45 45 0 0 1 7-28"/><path fill="#5b2a8c" d="M891 719a20 20 0 0 1 .4 9.8c-.6 5.7.3 9 2.6 14.2.2 3 .2 3 0 5-5.8-5.5-5.8-5.5-6.2-10.3A49 49 0 0 1 891 719"/><path fill="#874fba" d="M76 397h1c.1 5.8.1 5.8-1 8h-2l-.2 3.2c-.7 6.3-3.4 12-5.8 17.8l-2-1c1.3-10.1 5.7-18.8 10-28"/><path fill="#8447c1" d="M129 991c3 4.5 4.5 9.4 6.3 14.4l1.1 3.2 1.1 3 1 2.9c.6 3 .1 4-1.5 6.5l-5-13-1-2.6c-1.8-5-2.3-9-2-14.4"/><path fill="#6a33a7" d="M716 1494c5-.1 9.4.4 14.3 1.4q9.2 2 18.7 2.6v1l-6.1.6-3.5.4c-3.6 0-6-.8-9.4-2h-4c-3.9 0-6.4-.6-10-2z"/><path fill="#7d47b0" d="M1192 1405c-.1 1.7-.1 1.7-1 4q-3 2.3-6.2 4.1l-3.4 2.1q-4.5 2.3-9.4 3.8l-2-2 1.5-.9 6.8-4 2.4-1.4 2.3-1.3 2.1-1.3c5.2-3.1 5.2-3.1 6.9-3.1"/><path fill="#833fc3" d="M106 335h1c.7 6-1.6 9.8-4.5 14.9L98 358h-3c1.6-5.4 4-10 6.6-14.9l1.3-2.4z"/><path fill="#8b63bb" d="M1031 664c10.8 1 20.3 5.6 30 10v1a32 32 0 0 1-16-5l-5.2-1.1-2.7-.5-2.1-.4v-2z"/><path fill="#62209f" d="m815.6 409.9 3.4.1c-3.8 3.2-8.1 5.1-12.6 7.2l-2.4 1.1c-5.7 2.7-5.7 2.7-8 2.7.1-1.8.1-1.8 1-4 2.9-1.4 2.9-1.4 6.4-2.6 4.4-1.5 7.8-4.4 12.2-4.5"/><path fill="#6e31b5" d="m390 30 4.9-.1 2.7-.1c2.4.2 2.4.2 4.4 2.2a20 20 0 0 1-5 13h-1c.5-4.3 1.2-8 3-12l-10 1z"/><path fill="#834ab2" d="m1240 1372 2 1a36 36 0 0 1-20.3 14.7l-2.7.3c3.6-4 7.8-6.7 12.2-9.7l4.3-3 2-1.2c1.5-1 1.5-1 2.5-2.1"/><path fill="#8528c8" d="M45 1037c1.8.1 1.8.1 4 1 2.9 5.1 5.7 11.3 4.8 17.3l-.8 2.7c-2-2-2.6-3.2-3.5-5.8l-.8-2.3-.8-2.4-.9-2.4c-2-5.8-2-5.8-2-8.1"/><path fill="#612d8d" d="M892 386a21 21 0 0 1-7.4 3.3l-2.5.7-2.7.6-2.6.7c-6.5 1.7-6.5 1.7-8.8 1.7l1-3q3.5-1.6 7-2.7l2.1-.7c5.1-1.6 8.8-2 13.9-.6"/><path fill="#400272" d="M796.3 1186.8h4q4.8.3 9.7 1.2l8.9.6h2.4l5.7.4v1c-28 .2-28 .2-41-1 3.8-2.5 5.8-2.2 10.3-2.2"/><path fill="#6b22a6" d="M69 1094q3 4.7 5.1 9.8l1.7 3.6c1.3 3.7 1.4 6.6 1.2 10.6a32 32 0 0 1-8-24"/><path fill="#7624c4" d="M1561 1199h2a80 80 0 0 1-6.4 14.8l-1.2 2.4-1.2 2.2-1 2c-1.2 1.6-1.2 1.6-4.2 2.6a39 39 0 0 1 9-17z"/><path fill="#7b41ca" d="M674 947q9.5 8 18 17l-3 1c-3.2-2.3-3.2-2.3-6-5v-2l-1.7-.7c-3-1.7-5-3.7-7.3-6.3z"/><path fill="#622f91" d="M787 426c-18.3 11-18.3 11-27 15 .8-2 .8-2 2-4 2.6-.7 2.6-.7 5-1l1-3h4v-2c5.6-3 5.6-3 9-3v-2c2.5-1.2 3.4-.8 6 0"/><path fill="#714496" d="m637 325 2 1-4.3 5.5C633 333 633 333 629 333l-.6 1.7c-2 3.3-4.2 5-7.4 7.3-2.2-.4-2.2-.4-4-1q9.5-8.6 20-16"/><path fill="#662ba2" d="M1342 1465c-2 4.7-5.2 6.8-9.2 9.7l-2 1.5a20 20 0 0 1-11.8 4.8 26 26 0 0 1 15-9v-3c4.2-4 4.2-4 8-4"/><path fill="#6f3da7" d="M2 741h1q1.2 6.2 1.2 12.6v3.4c-.2 2.9-.7 4.5-2.2 7-3.7-5.6-2.3-12.3-1-18.6z"/><path fill="#4f1a7d" d="m627 586 2 1-1.6 3.4Q621.7 602 617 614h-1c0-10.2 5.4-19.6 11-28"/><path fill="#7039a1" d="m640 560 4 1-5.8 9.8-1.7 2.7-1.6 2.7-1.5 2.5-4.4 6.3c-1-3-1-3 0-5.3l1.4-2.4 1.5-2.4 1.1-1.9h2v-3h2l.4-2 .5-2.4.6-2.5c.5-2.1.5-2.1 1.5-3.1"/><path fill="#8453b0" d="m968 981 2 1c-1.5 3.8-3.3 5.3-7 7h-4v3c-3 2-3 2-7 2v2l-4-1 1.4-1 6.4-4.3 2.2-1.5 2.1-1.5 2-1.3z"/><path fill="#6814b7" d="m224 250 3 1-5.2 8.4-1.5 2.4-1.5 2.3-1.3 2.1a12 12 0 0 1-5.5 3.8q2.5-6.6 6.6-12.2l1.2-2c3-4.6 3-4.6 4.2-5.8"/><path fill="#5c1ca5" d="M877.9 1501.9h3.2l7.9.1v1l-3.5.1-4.6.3h-2.3c-3.5.2-6.3.5-9.5 1.6-4.4 1.4-8.5 1.2-13 1.1h-2.6l-6.5-.1v-1l2.6-.1 3.5-.3 3.5-.2c3.3-.3 3.3-.3 6-1.4 5.1-1.5 10-1.2 15.3-1.1"/><path fill="#693d95" d="M1631 932h1v26l-2 1c-2.6-8.8-.7-18.2 1-27"/><path fill="#6016a4" d="M8 858h1l.4 3.8 1 9.9.3 2.2q.5 3 1.3 6.1v8c-3-4.4-4.3-7-4.2-12.4v-6.3L8 866z"/><path fill="#9768c3" d="M19 577c1.1 3.4 1 6.2.6 9.8l-.3 3-.3 2.2h-2l-.1 2.2c-1 13-1 13-4.9 18.8a149 149 0 0 1 4.2-25c1.6-7.5 1.6-7.5 2.8-11"/><path fill="#7d2dc2" d="M9 883c2 2 2 2 2 5h2l3 18-2 1c-3-7.9-4-15.7-5-24"/><path fill="#7946b5" d="M627 883c4 3.5 6.2 7.5 8.7 12l1.2 2.2c1.6 3 3 5.6 4.1 8.8h-3v-4h-2q-2.2-3-4-6.1l-1.2-1.8A24 24 0 0 1 627 883"/><path fill="#8340c7" d="M98 570c2 3.9.3 8.8-.2 13l-.4 3-.4 3-.4 2.7A9 9 0 0 1 93 597c-1.2-3.7-.7-5.9 0-9.7l.5-3.6.5-2.7 3-1v-4.4l-.1-2.5c.1-2.1.1-2.1 1.1-3.1"/><path fill="#5c2b8b" d="M182 321h2q-2.3 7.1-5.4 13.8l-.9 2c-2.2 5-2.2 5-5 6.1l-1.7.1c1.5-5.3 3.9-9.7 6.6-14.4l1.3-2.2z"/><path fill="#7233a6" d="M940.9 1619.7h3.3l3.5.1h3.6l8.7.2v1c-20 2.3-20 2.3-29 2 3.3-3 5.5-3.4 9.9-3.3"/><path fill="#7a2dc4" d="M1100 1590c-3 2-5.6 3-9 4.1l-3.2 1.1c-2.8.8-2.8.8-5.8.8.7-2.4 1.5-3.7 3.6-5 5.2-2.2 9-2 14.4-1"/><path fill="#5c2590" d="m1059 1126-8.4 5.5-2.4 1.6-4.4 2.9c-1.8 1-1.8 1-3.8 1 .4-2.8.8-3.8 2.9-5.6l2.3-1.5 2.4-1.5c4.2-2.4 6.7-3.8 11.4-2.4"/><path fill="#7733b7" d="M108 922c2.8 4.2 3.8 8.6 5.2 13.4l.9 3 .8 2.7.7 2.6c.4 2.4.2 4-.6 6.3a75 75 0 0 1-7-28"/><path fill="#630db4" d="M3 802h1a145 145 0 0 1 2 32c-2.4-3.6-2.4-5.6-2.6-9.8l-.1-2A303 303 0 0 1 3 802"/><path fill="#602a91" d="M1141 1037h3a45 45 0 0 1-7 12.3l-1.4 1.9c-3.3 4.7-3.3 4.7-5.6 5.8v-4h2v-3h2v-3l2-1 3-6h2z"/><path fill="#71459e" d="M746 265a33 33 0 0 1-21 9c3.9-4.3 15.4-11.8 21-9"/><path fill="#681db5" d="m336 108 3 1q-7.2 8.4-15 16l-2 2 1-5h2l.7-1.7c1.6-2.9 3.7-5.1 6-7.5q1.1-1.4 2.4-2.8z"/><path fill="#a872d2" d="m324 72 2 1c-2.6 4.7-4 6-9.1 8-3.4 1.8-5.8 4.5-8.3 7.2l-1.7 1.7L303 94l-2-1c7-7.2 13.9-14 22-20z"/><path fill="#661bb3" d="m380 60 3 1q-7.1 8.4-15 16l-1-3z"/><path fill="#8144b3" d="m351 52 2 1c-1.5 4-4.1 5.8-7.6 8.3l-3 2L340 65l-4-2 5.8-4.4 1.7-1.2q3.7-2.9 7.5-5.4"/><path fill="#8245c9" d="M139 1020c3.3 3.8 4.9 8 6.8 12.6l1 2.4.9 2.2.8 2c.5 1.8.5 1.8-.5 3.8-3.3-2.7-4.6-6-6-10-.2-3.4-.2-3.4 0-6l-3-1z"/><path fill="#8448c2" d="M1590 636a50 50 0 0 1 5.9 13 56 56 0 0 1 3.1 11l-3-1a92 92 0 0 1-3.2-8.2l-.8-2.3a29 29 0 0 1-2-12.5"/><path fill="#5b2e88" d="m744 453-19 14-1-3 1.6-1.2q4.6-3.4 9.1-7c5.3-4.1 5.3-4.1 9.3-2.8"/><path fill="#50058e" d="M788 1621q17-.2 34 1v1c-23.8 1.6-23.8 1.6-34-1z"/><path fill="#7c32b2" d="M170 1274a65 65 0 0 1 7.8 9l2 2.6c1.2 2.4 1.2 2.4.9 4.7l-.7 1.7c-4.2-4-7.8-8.6-10-14z"/><path fill="#330169" d="m765 1503 22.4-.3h3.6c3 .3 3 .3 5 1.8l1 1.5h-8l-1-1h-6.5q-8.3.1-16.5-1z"/><path fill="#7043a5" d="M625 1474a89 89 0 0 1 21 5v1c-7.5.3-14.3-.4-21-4z"/><path fill="#7b51a0" d="M1451 1096c1.5 3.9.5 6.6-.8 10.4l-1 3.4q-1.5 4.2-3.2 8.2h-3q3.2-11.3 8-22"/><path fill="#683299" d="M1171 978h2c-2 9.1-5.6 16.8-10 25h-1c.4-5.7 2.1-9.7 4.8-14.7q1.6-3 2.2-6.3h2z"/><path fill="#3c0073" d="M5 691h1c.4 19 .4 19-3 24l-.1-10.9V701l-.1-3v-2.8C3 693 3 693 5 691"/><path fill="#815ab4" d="M525 1436c7.4 2.2 14.1 5.4 21 9v1c-6.3.8-9.8-1.2-15-4.5l-2-1.5v-2h-4z"/><path fill="#6e3a9a" d="M94 858h1v7h2c3 6.1 3.3 14.3 3 21h-1v-6h-2c-2-7.5-3.4-14.3-3-22"/><path fill="#602f89" d="M939.8 758.8c2.5 1.4 4.3 3 6.2 5.2a174 174 0 0 1-14.4-2.6l-3.8-.8-2.8-.6c4.8-2.7 9.5-2.7 14.8-1.2"/><path fill="#8d5abe" d="M89 368h1c.3 5-.7 8.3-2.8 12.8l-1.6 3.5C84 387 84 387 81 388a42 42 0 0 1 4.6-12.8l1-2.1z"/><path fill="#742bb5" d="M1160 1003h2a89 89 0 0 1-8 20h-1c-.3-4.8.4-7 3-11l3-7z"/><path fill="#6009a5" d="M21 933h1l2.6 11.8.7 3.3.7 3.3.7 3c.3 2.5.1 4.1-.7 6.6a54 54 0 0 1-5-28"/><path fill="#865fab" d="M1011 933c.7 1.7.7 1.7 1 4-1.1 2.6-1.1 2.6-2.8 5.3l-1.7 2.7-1.5 2h-2l-1 3h-3q2.9-5.7 6.6-10.7l1.3-1.9z"/><path fill="#7848a6" d="M594 680h2v4.4l.1 2.4c-.1 2.2-.1 2.2-1.1 4.2l-.6 10.8c-.4 3.2-.4 3.2-2.4 5.2-.4-19-.4-19 2-27"/><path fill="#7a4fa6" d="M966 1491v2l-6 1v2c-6.2.9-6.2.9-8 1l-1-1-7-1v-1l14.6-2.3 2.3-.4c2.1-.3 2.1-.3 5.1-.3"/><path fill="#7b4ca3" d="M110 1184c1.8 0 1.8 0 4 1 3 5.9 3 5.9 3 9h2l1 5-2 1-5.2-8.8c-2.8-5-2.8-5-2.8-7.2"/><path fill="#8654af" d="M1020 822c3 1 3 1 4 2.6 1.5 4.3 2.3 7.8 2 12.4h2v11h-1l-.4-1.6-2-7.5-.6-2.5z"/><path fill="#732eb6" d="m1113 1584-3 1-1 3c-4 1.8-7.6 2.4-12 2l-2-2 10.1-3.3c5.7-1.8 5.7-1.8 7.9-.7"/><path fill="#8143c2" d="M569 1577q9 .8 18 3v2l2 .4 2 .6 1 2a166 166 0 0 1-23-7z"/><path fill="#8e61b7" d="m1217 1388 2 1c-2.5 3.9-2.5 3.9-5 4.4-2.3.4-2.3.4-3.7 3-3.2 3.6-5.7 3.8-10.3 4.6a59 59 0 0 1 11.3-9.3l3.3-2.1z"/><path fill="#6818bc" d="m1458 1354 3 1q-6.6 7.8-14 15l-1-2 4.3-5.3 2.4-3q2.5-3 5.3-5.7"/><path fill="#8f46d2" d="M858 1190h29v1a238 238 0 0 1-34 2v-2h5z"/><path fill="#944eca" d="m22 950 2 1c.6 2 .6 2 1 4.4.6 3.7.6 3.7 3 6.6.2 3.3.2 3.3.1 7.1v4L28 976a29 29 0 0 1-3-8.4l-.6-2.6-.5-2.6-.6-2.6c-1.3-6.4-1.3-6.4-1.3-9.8"/><path fill="#8948bd" d="m1477 781 2 1 2 7 1 1v16h-1l-2-11.4-.6-3.2-.5-3.2-.5-2.9c-.4-2.3-.4-2.3-.4-4.3"/><path fill="#7d47b1" d="M1600 663c2.8 4.2 3.8 8.7 5.2 13.5l.9 3 .8 2.7.7 2.6c.4 2.2.4 2.2-.6 5.2h-1l-.8-3q-.8-3-2-6c-2.2-6-2.9-11.7-3.2-18"/><path fill="#6924aa" d="M238 229c1 2.5 1.2 3.6.1 6l-1.4 2.1-1.5 2.3-1.6 2.3-1.6 2.5c-2.7 4.1-2.7 4.1-4 5.8h-1v-5l3-1c.7-2 .7-2 1-4h2l.3-2.1c.9-3.6 2.6-6 4.7-8.9"/><path fill="#7743bf" d="M336 1308c5.9 3.5 10.3 8.1 15 13-1.8.7-1.8.7-4 1-1.8-1.3-1.8-1.3-3.5-3.1l-1.8-2c-5.7-6.5-5.7-6.5-5.7-8.9"/><path fill="#804bca" d="M312 1285q7.4 6.1 14 13l-3 1c-2.4-1.6-2.4-1.6-5-4l-2.7-2.4c-2.4-2.7-3-4.1-3.3-7.6"/><path fill="#691fac" d="M1583 1146h1c.9 7.3-2.2 13.3-5 20h-3c1-3.8 1.8-6.7 4-10l1.6-5.2.8-2.7z"/><path fill="#8e5bb7" d="M1619 735h1c4.8 19.3 4.8 19.3 4 29h-1v-10h-2c-1.6-3.3-1.4-7-1.6-10.6v-2.5z"/><path fill="#752bbd" d="M344 1453c11 7.2 11 7.2 14 10v3a71 71 0 0 1-9.2-5.4l-2.8-1.7-2-1.9z"/><path fill="#8355b2" d="m1112 1445 2 1-1 2h-3v2l-3 1-3.8 1.4-2 .6q-4.3 1.5-8.2 4l-3-2 1.6-.7 7.2-3.2 2.5-1 2.4-1.2 2.2-1 4.2-2z"/><path fill="#8034b9" d="M64 1081q5.8 8.7 5 19c-3.6-3.6-6-9.1-6-14.2.3-2 .3-2 1-4.8"/><path fill="#7940ac" d="M1613 710q2.2 3.9 3 8.3l.6 2.4.5 2.4.6 2.5c1.3 6.1 1.3 6.1 1.3 8.4h-2a64 64 0 0 1-4-24"/><path fill="#5b0ba9" d="m109 513 2 1c-2 13.6-2 13.6-4 20h-1a50 50 0 0 1 3-21"/><path fill="#8652b1" d="M219 173c1 2 1 2 .4 4.3a27 27 0 0 1-6.4 7.7l-2 2-3-1 3.3-4.2 1.8-2.4q2.7-3.4 5.9-6.4"/><path fill="#7136ad" d="M1357 1452h2c-1.6 4.2-4.4 6-8 8.7l-1.6 1.2a25 25 0 0 1-7.4 4.1l1-4h3v-2l2-2h3v-2h3v-2h3z"/><path fill="#8e5bc3" d="m1134 1435 2 1c-3.6 4.4-6.2 5.7-11.8 6.5-2.3.4-2.3.4-4.2 1.6-2.5 1.1-3.5.6-6-.1l1.6-.7 7.3-3.2 2.5-1.2 2.5-1 2.2-1z"/><path fill="#904cd1" d="M289 1410c4.3.5 6.3 1.8 9.3 4.9l2 2c1.7 2.1 1.7 2.1 2.7 5.1a22 22 0 0 1-9.8-6.6l-2.4-2.4c-1.8-2-1.8-2-1.8-3"/><path fill="#975bc4" d="m159 1264 4 1v3l1.8.3c3 1 3.7 2 5.2 4.7.7 3.8.7 3.8 1 7-5.2-4.5-8.4-10.2-12-16"/><path fill="#824cac" d="M1011 805c1.9.3 1.9.3 4 1 2.2 3.2 2.2 4.3 2 8l3 1v7a67 67 0 0 1-7.8-12.5c-1.2-2.5-1.2-2.5-1.2-4.5"/><path fill="#833ac0" d="M4 668h1q1.2 7.6 1.3 15.3v2.2c0 2 0 2-.3 5.5l-3 2z"/><path fill="#7543a5" d="M609 628h2q-3 11.6-7 23l-2-4q1.3-4 3-8z"/><path fill="#532183" d="M21 567h2c-.4 7.5-.8 14.7-3 22h-1l.4-9.3.2-2.7v-2.6l.2-2.3c.2-2.1.2-2.1 1.2-5.1"/><path fill="#7b26ca" d="m214 268 2 1-8 14-2-2c.3-4 2.9-7.6 5-11z"/><path fill="#6c2fa9" d="M302 146h3a44 44 0 0 1-5.9 9.2l-2 2.7c-2.1 2.1-3.1 2.8-6.1 3.1 2-3.5 4-6.3 7-9h2l.4-1.9c.6-2.1.6-2.1 1.6-4.1"/><path fill="#7a2cca" d="M393 45h3a22 22 0 0 1-5.4 7.5l-1.8 1.8c-1 .8-1 .8-1.8 1.7l-2.4 2.4L383 60c.6-3.6 2.1-5.8 4.4-8.6l2-2.4c1.6-2 1.6-2 3.6-4"/><path fill="#451179" d="m698 1491 15 2v3c-5.8.4-9.6-.7-15-3z"/><path fill="#844ab0" d="M135 1224h2l2.5 4.8 1.4 2.7c1.1 2.5 1.1 2.5 1.1 5.5h2l-1 4-4-5.7-2.2-3.2c-1.8-3.1-2.2-4.6-1.8-8.1"/><path fill="#532583" d="M673 1153q5.3.9 10.2 3l2.6 1c2.2 1 2.2 1 4.2 3a24 24 0 0 1-16-4z"/><path fill="#9660cb" d="M1621 1012h2c-.4 10-2.7 19.4-5 29h-1l.4-8.4v-2.4c.4-6 .4-6 2.6-8.2.5-2.4.5-2.4.6-5.1l.3-2.8z"/><path fill="#9b6ec7" d="M40 494c1.4 3.8.6 6.4-.4 10.3l-1 3.2-.6 2.5h-2v3.4c0 3.6 0 3.6-1 5.6h-2c1.4-8.7 4.1-16.7 7-25"/><path fill="#7736b7" d="M1190 1556c-3 2.4-6 4-9.6 5.7l-3 1.3c-2.4 1-2.4 1-4.4 1l1-3c2-.7 2-.7 4-1v-2c4.1-2 7.5-2.2 12-2"/><path fill="#7b4ab7" d="M177 1102c3.9 4.3 10 12 10 18-4.2-1.5-5.3-4-7.2-7.9l-1.6-3.2c-1.2-2.9-1.2-2.9-1.2-6.9"/><path fill="#62388e" d="m922 1009-1 3q-3.4 1.6-6.9 2.8l-2 .7c-1.8.7-1.8.7-5.1 1.5l-3-2 7.9-3 2.2-.9c5.7-2.1 5.7-2.1 7.9-2.1"/><path fill="#6c38a5" d="M424 688h1q1.2 15.4 1 31h-1c-2.5-6.5-2-12.5-1.6-19.4l.1-3.4z"/><path fill="#7f4ab3" d="M1242 441c4.8.9 4.8.9 7 2v2l2.4.3c2.6.7 2.6.7 4 2.8l.6 1.9h4v3a41 41 0 0 1-10.1-5.4l-2.6-1.8q-2.9-2.2-5.3-4.8"/><path fill="#8732d2" d="M174 342q-2.5 7.6-6 15c-2-3-2-3-1.8-5.3q1.4-4.6 3.8-8.7c2-1 2-1 4-1"/><path fill="#6a25a5" d="m1322 1300 1 2c-2 4-4.7 6.9-8 10l-2 2-3-1z"/><path fill="#7d24bd" d="M54 1054c1.6 2.4 2.6 4.3 3.6 7l.8 2c.6 2 .6 2 .6 5-1.9-.1-1.9-.1-4-1-2.3-4.6-2-8-1-13"/><path fill="#7920b9" d="M35 994a35 35 0 0 1 4 20l-2 1-1.6-8.8-.4-2.5-.4-2.5-.4-2.2c-.2-2-.2-2 .8-5"/><path fill="#8b59b9" d="M93 840h1l.2 2.7.2 3.5.3 3.6q.4 3.6 1.3 7.2v8h-1v-7h-2c-1.3-2.6-1.1-4.4-1.1-7.3v-2.9q.1-4 1.1-7.8"/><path fill="#4f038f" d="M11 631h1l-.9 12.3-.2 3.5-.3 3.3-.2 3.2A17 17 0 0 1 8 660l.4-12.8v-3.7l.2-3.5v-3.3C9 634 9 634 11 631"/><path fill="#704396" d="M1389 578c3.7 1.2 4.8 1.7 7 5v4h2l1 6a51 51 0 0 1-10-13z"/><path fill="#7221c2" d="M271 184h1c.3 3.2.2 4.7-1.5 7.5l-2 2.3-2 2.4-1.5 1.8-4-1 2-2.3 2.4-3 2.5-3.1c2-2.4 2-2.4 3.1-4.6"/><path fill="#69349e" d="m925 1498-9 2 2 2-21-1v-1l3-.1c6.8-.4 13.3-1 20-2.6 2-.3 2-.3 5 .7"/><path fill="#883cd2" d="M332 1444q6.3 4 12 9l-1 3-5.5-3.7-3-2.2-2.5-2.1z"/><path fill="#7d47c4" d="M160 1069c3.4 4 8 9.5 8 15h-3c-5.7-9.2-5.7-9.2-5-15"/><path fill="#69419d" d="M1097 698c3.7 2 6.7 4.4 9.8 7.2l2.4 2.2 1.8 1.6-3 1c-2.2-1.3-2.2-1.3-4.6-3.1l-2.3-1.8c-2.3-2.3-3.1-4.1-4.1-7.1"/><path fill="#6a25a8" d="m149 265 3 1-4.4 7-1.3 2q-1.6 2.6-3.3 5h-1c-.4-4-.1-5.8 1.8-9.4l2.2-2.6h3z"/><path fill="#6102a4" d="m318 79 2 2-4.7 4.3-2.6 2.3Q309 91 305 94l-2-1 5.8-5.9 1.7-1.7 1.6-1.6 1.5-1.5C315 81 315 81 318 79"/><path fill="#612da6" d="M1061 675c4.3.6 7.2 2.2 10.8 4.6l3 1.9 2.2 1.5c-4.2 1.4-5.8 0-9.7-2l-3.6-1.7-2.7-1.3z"/><path fill="#803cba" d="m165 240 1 2c-2 5.5-4.8 10.2-8 15-1-3-1.1-3.8.1-6.8q3.2-5.3 6.9-10.2"/><path fill="#6f44aa" d="M509 1430c5.8.5 10 2.2 15 5v1c-6 .5-9.8-1-15-4z"/><path fill="#8d46c5" d="M186 1300h2v2h3v2l2 .7c2 1.3 2 1.3 2.8 4l.2 2.3h2l-1 4-1.1-1.5q-3.7-5-7.8-10c-2.1-2.5-2.1-2.5-2.1-3.5"/><path fill="#622e90" d="M891 1186h16c-2.4 2.4-3.6 2.5-6.8 3.1l-2.6.5q-3.8.6-7.6.4z"/><path fill="#400272" d="m1003 1611-1 2c-2.7.9-4.2 1.1-7 1.1h-7.1l-5.9-.1v-1c7-1.2 13.8-2.3 21-2"/><path fill="#51049e" d="m561 1571 23 8c-3.8 1.3-5.2.3-9-1l-3.7-.5c-3.3-.5-3.3-.5-5.3-2.5l-5-2z"/><path fill="#683d96" d="M213 1163c4.2 3.6 6.5 8.1 9 13h-4q-4.6-4.6-5.3-11 0-1 .3-2"/><path fill="#9543d4" d="M12 903c4 3 4 3 5 6l.2 4v2c-.2 2-.2 2-2.2 5z"/><path fill="#7327b5" d="M1149 1431a41 41 0 0 1-10 6l-3-1v-2l4.8-2 2.7-1.2c2.5-.8 2.5-.8 5.5.2"/><path fill="#9c59d5" d="M217 1338c6 1.3 8.5 4.3 12 9l-1 2-6-5q-2.9-2.8-5-6"/><path fill="#6b20bb" d="m690 496 3 1c-4 4.8-8 9.1-13 13 1.8-5.8 5.8-9.8 10-14"/><path fill="#7429c1" d="m290 161 3 1-3.2 4.4-1.8 2.5c-2.3 2.4-3.7 2.8-7 3.1l2.8-3.8 1.6-2.2q2.1-2.7 4.6-5"/><path fill="#460381" d="M709 1611q10 1 20 3v1l-7.2.3h-2c-3.8.1-5.6-.2-8.8-2.3z"/><path fill="#6e2cb1" d="M1172 1564a24 24 0 0 1-9 5c-3.3-.4-3.3-.4-6-1 5.5-3.7 8.4-4.2 15-4"/><path fill="#7825cf" d="M437 1515c4 1.2 7.6 2.5 11 5v3c-4-1.2-7.6-2.5-11-5z"/><path fill="#7224b0" d="M211 1327q5.9 5.7 11 12a9 9 0 0 1-6.7-2.5c-4.3-4.8-4.3-4.8-4.3-9.5"/><path fill="#6c25af" d="M1524 1265h1c-.2 7.1-3.7 11.5-8 17l-1-4h2v-3h2v-3h2l.4-2.4c.6-2.6.6-2.6 1.6-4.6"/><path fill="#723da9" d="m1091 1097 2 1a67 67 0 0 1-14 12v-4h3v-2h3l.8-1.8c1.4-2.5 2.9-3.6 5.2-5.2"/><path fill="#5d2889" d="M1003 794c3.8.5 5.7 2 8 5 .3 3.3.3 3.3 0 6-3.7-3.4-6-6.4-8-11"/><path fill="#7249a8" d="M1121 720c7.5 6.2 7.5 6.2 10 10l-1 2c-7.7-5-7.7-5-9-9.4z"/><path fill="#7a4fa1" d="m930 675 2 1c-1 2.6-1.6 3.8-4 5.2l-2.4 1q-4.4 1.6-8.6 3.8c3.4-5 8-7.8 13-11"/><path fill="#9050ce" d="M114 320h1c.3 4.9-.6 7.8-3 12h-3v3h-2q2.2-5.3 4.6-10.3l1.4-2.7z"/><path fill="#7d3db4" d="M379 40a50 50 0 0 1-17 7c5-5.3 9.7-9 17-7"/><path fill="#834cb7" d="M999 1614v1l-8.2 1.5-2.4.4-2.3.4-2 .4c-2.1.3-2.1.3-6.1.3l1-3c13.6-1.1 13.6-1.1 20-1"/><path fill="#8956bc" d="M1420 1164h1c1 5.8-1.6 9.3-4.5 14l-1.5 2h-2c1.6-5.7 4.3-10.8 7-16"/><path fill="#5f219b" d="M1033 1141c-5.2 4.4-8 6.3-15 6 5-4 8.4-6.5 15-6"/><path fill="#7440b3" d="M192 1129c3.4 4 6.7 8.3 9 13l-1 2a34 34 0 0 1-8-11z"/><path fill="#59089a" d="M1476 767a26 26 0 0 1 3.7 10.4l.4 2c.7 3.5 1.2 6.3-.1 9.6a55 55 0 0 1-4-22"/><path fill="#6c349a" d="M1464 724c2.7 4 2.2 6.2 2 11h2c1.3 2.5 1.1 4.3 1 7.1v4.9a54 54 0 0 1-5-23"/><path fill="#744e9e" d="M1219 428h4v2l2.2.3c3 .7 5.4 1.8 8.1 3.3l2.7 1.3 2 1.1-1 2c-7-2-12.5-5.3-18-10"/><path fill="#9451cd" d="m66 419 2 3-1 3-.3 2.4c-.9 3.2-2.3 4.5-4.7 6.6-1-2-1-2 0-5l1.4-3.6 1.5-3.6z"/><path fill="#561d86" d="m1106 384 5.7-.1 3.2-.1c3.1.2 5.3.9 8.1 2.2v1c-6.1.2-11.2 0-17-2z"/><path fill="#8d4cc3" d="m201 193 1 2c-2.8 7.7-2.8 7.7-6 10-2.2.7-2.2.7-4 1q2.3-4.8 5.6-8.7l2-2.5z"/><path fill="#9b68c6" d="m299 94 2 1-2 4h-3c-2.6 2.2-2.6 2.2-5.2 5l-2.7 2.8-2.1 2.2-2-1 5.8-5.9 1.7-1.7 1.6-1.6 1.5-1.5C296 96 296 96 299 94"/><path fill="#7d32cc" d="m353 91 1 3-10 9-1-3c2.5-3.8 5-5.9 9-8z"/><path fill="#6618a9" d="M1014 1609c-2.4 2.8-4.5 4-8 5h-7c4.5-3.8 9.1-5.3 15-5"/><path fill="#6d1bbb" d="M1140 1575c-1 2-1 2-3 4q-4.5 1-9 1l1-3c2-1 2-1 4.4-1.7l2.5-.8c2.1-.5 2.1-.5 4.1.5"/><path fill="#752dbb" d="M366 1472a41 41 0 0 1 16 8c-3 1-3 1-5.1.1a38 38 0 0 1-10.9-8.1"/><path fill="#752cc1" d="m1366 1444 4 1-10 8-1-3 5-4.8z"/><path fill="#551a8e" d="m1120 1066 3 1a69 69 0 0 1-12 12c.3-2 .3-2 1-4l3-1v-3h3v-3z"/><path fill="#5f2997" d="M132 1006c3.6 2.3 4.7 4 5.8 8.2l.7 2.7.5 2.1-2 2-2.5-6.4-1.4-3.6c-1.1-3-1.1-3-1.1-5"/><path fill="#8150ab" d="M1625 767h1l.2 2.1.2 2.8.3 2.7c.2 2.4.2 2.4 1.3 4.4v10h-1l-.4-2.2-.5-2.7-.6-2.8c-.3-2.3-.3-2.3-1.5-3.3-.2-7.3-.2-7.3 1-11"/><path fill="#704595" d="M1442 670h2v3h2c3 5.3 3 5.3 2.7 8.9l-.7 2.1c-2.5-3-3.7-5.5-4.7-9.2z"/><path fill="#8d5ab7" d="m1345 524 4 1 1 5 4 1 1 4c-3.1-1.4-5-2.9-7.2-5.5l-1.6-1.8c-1.2-1.7-1.2-1.7-1.2-3.7"/><path fill="#7530ba" d="m1324 1481-11 7-1-2c6.4-6.9 6.4-6.9 12-5"/><path fill="#6430ab" d="M374 1341c3.2 1.4 5.6 3.3 8.3 5.6l2 2 1.7 1.4-3 1c-2-1.3-2-1.3-4.1-3.2l-2.2-2c-1.7-1.8-1.7-1.8-2.7-4.8"/><path fill="#6b3897" d="M93 1148c3.6 1.8 4.7 6.3 6 10 .3 3 .3 3 0 5-7.2-9-7.2-9-6.7-13.4z"/><path fill="#680db9" d="M6 834h1a97 97 0 0 1 1 19H7c-1.6-6.4-3.2-12.5-1-19"/><path fill="#5f2e8c" d="M667 522c.7 1.7.7 1.7 1 4-1.4 2.4-1.4 2.4-3.4 4.8l-2 2.4-1.6 1.8-1-4h2q0-.9.3-1.7c1-3 2.7-5 4.7-7.3"/><path fill="#551a8e" d="m715 471 4 1-6 6.2c-2 1.8-2 1.8-5 2.8l1-4h3l-1-3h3z"/><path fill="#671eb5" d="m318 128 3 1-5 6q-2.9 2.9-6 5a30 30 0 0 1 8-12"/><path fill="#773cae" d="M1151 1023h2q-2 5.2-5 9.8l-1.7 2.4-1.3 1.8h-1v-5h2l2-5h2z"/><path fill="#8733c1" d="M39 1010c2 3 2.4 4.2 2.8 7.6l.2 2.3c0 2.1 0 2.1-2 4.1-2.2-5.2-2-8.6-1-14"/><path fill="#704894" d="M443 880c2 3 3 5.6 4 9h1v9c-1.9-2.8-3-5.3-4.2-8.4l-1-3a9 9 0 0 1 .2-6.6"/><path fill="#600eb7" d="M89 614c2 2 2 2 2.3 4.2 0 5-.3 9.1-2.3 13.8h-1q-.2-9 1-18"/><path fill="#7124ba" d="M152 385h2l-1.2 5.4-.8 3c-1 2.6-1 2.6-3.1 4l-1.9.6 2-8h2z"/><path fill="#62369b" d="m1416 380 6 4.3q2.9 2.5 5 5.7l-5-1-1-3c-2.5-1.2-2.5-1.2-5-2z"/><path fill="#7c37bb" d="M106 335h1c.5 5.6-1 8.4-4 13h-1c-.5-5.6 1-8.4 4-13"/><path fill="#622aac" d="M364 1333c4 1.7 6.8 4.2 10 7-3 1-3 1-4.8.2l-5.2-3.2z"/><path fill="#7543bc" d="m283 1254 3.4 2.8 1.9 1.5c1.8 1.8 2.7 3.4 3.7 5.7-4.3-.5-6.3-2.8-9-6z"/><path fill="#6f469e" d="M205 1150a35 35 0 0 1 8 11v2c-4-1.4-4.9-3.3-7-7-.7-3.4-.7-3.4-1-6"/><path fill="#7334b2" d="m663 1148 4.4 1.3 2.4.7c2.7 1.2 3.2 2.3 4.2 5l-5-1.2-2.7-.8c-2.3-1-2.3-1-3.1-3.1z"/><path fill="#704299" d="M1606 1074h3l-3 15h-1v-5.8l-.1-3.3c.1-2.9.1-2.9 1.1-5.9"/><path fill="#4c05a2" d="M860.6 1023h5.4c-4 2.6-6.5 3.1-11.2 3H850c4-2.7 5.8-3.1 10.6-3"/><path fill="#63398b" d="m909 691 2 4-9 9c0-3.8 1.3-5.1 3.5-8.2l2-2.7z"/><path fill="#774da6" d="M1544 538q4.7 5.5 8 12l-1 2c-3-2.8-4.7-5-6-9h-1z"/><path fill="#5d3492" d="M1350 328c4.3 2.3 7.7 4.3 11 8-2.6.4-4.4.4-6.7-1-1.6-1.3-1.6-1.3-4.3-4z"/><path fill="#724998" d="m651 315 2 1c-3.7 4-7.1 7.5-12 10l-2-2 2.4-1.7 3-2.2 3.1-2.3c2.3-1.6 2.3-1.6 3.5-2.8"/><path fill="#7630be" d="M537 1565c5.6.4 10.7 1 16 3v1c-6.2.4-10.4-.2-16-3z"/><path fill="#732fb9" d="M1468 1342c.7 1.7.7 1.7 1 4-1.4 2.1-1.4 2.1-3.4 4.3l-2 2-1.6 1.7-1-3c1.4-2.3 1.4-2.3 3.4-4.7l2-2.4z"/><path fill="#8f60ba" d="m1434 1136 1 4h-2l.2 2.8c-.2 3.5-.8 4.6-3.2 7.2l-2-1c1.4-4.8 3.4-8.7 6-13"/><path fill="#73419f" d="M1180 826a28 28 0 0 1 4 18c-2.5-2.5-2.5-4-3.1-7.3l-.5-2.9q-.6-3.8-.4-7.8"/><path fill="#9252cb" d="m52 457 2 3-1 2 .3 2.4-.3 2.6c-2.5 1.8-2.5 1.8-5 3z"/><path fill="#7227b2" d="M71 413c1.2 3.7.6 4.7-1 8.2l-1 2.7-1 2.1-2-1 .8-4.9.5-2.7c.7-2.4.7-2.4 3.7-4.4"/><path fill="#5a2f8f" d="M1387 356q5.9 3.5 11 8c-3 1-3 1-4.8.1l-1.8-1.3-1.9-1.3c-1.8-1.8-2.1-3-2.5-5.5"/><path fill="#6020a0" d="M1331 1474v2c-4 3-7 4.5-12 5 3.5-3.8 6.6-7 12-7"/><path fill="#6b25ad" d="M1541 1236h1c-.5 5.7-2 9.2-5 14-1.2-3.6-.7-4.2.9-7.6l1-2.3z"/><path fill="#6123a2" d="M1561 1199h2c-1.2 4-2.6 7.5-5 11h-2l-1 3-1-2 1.8-2c2.4-3.3 3.7-6.2 5.2-10"/><path fill="#8f5bc2" d="M612 1120h4v2l6 2v2h4v3q-5.2-2-9.8-5l-2.4-1.7-1.8-1.3z"/><path fill="#612e92" d="M1622 1000c2 2 2 2 2.2 4.2v2.4l-.1 2.5-.1 1.9-3 1c-.1-8.6-.1-8.6 1-12"/><path fill="#8151a9" d="m485 980 3 1v3l4 2v6c-7-8.4-7-8.4-7-12"/><path fill="#975eca" d="M11 617h1l.3 10.6C12 631 12 631 9 634z"/><path fill="#8f6ab0" d="M450 573c1.4 4.7.9 8.8-1 13.4-1 1.6-1 1.6-3 2.6.5-5.9 1.8-10.5 4-16"/><path fill="#702bb4" d="M118 477h1c.4 11.5.4 11.5-2 17h-1c-.2-6 .5-11.2 2-17"/><path fill="#6c41a2" d="M1282 286c4.8 1.6 8.8 4.3 13 7-2.7 1-3.7 1.1-6.4 0l-4.8-2.9-1.8-1.1z"/><path fill="#5404a3" d="M587 1581c6 .6 11.3 2.2 17 4a21 21 0 0 1-12 0c-3-2-3-2-5-4"/><path fill="#6515b2" d="m1311 1485 2 1c-.7 2-.7 2-2 4-2.2.8-2.2.8-4.6 1.3l-2.5.4-1.9.3z"/><path fill="#7952a7" d="m604 1467 8.3 2.1c2.7.9 2.7.9 5.7 2.9l-12-1v-2h-2z"/><path fill="#5f0db5" d="m1388 1425 3 1-7 7-3-2 3.3-3 1.9-1.8z"/><path fill="#7243b3" d="M353 1324c4.8 2.5 7.9 4.5 11 9a21 21 0 0 1-9-4v-3h-2z"/><path fill="#7035a7" d="M1602 1090h3l-1.3 7-.7 2-3 1q.6-5.2 2-10"/><path fill="#7f51b6" d="M168 1084c3.4 3.8 4.6 8.2 6 13l-3-1v-4h-2c-1.4-2.7-1-5-1-8"/><path fill="#994ad2" d="m45 1037 4 1c1.4 2.8 1.2 5 1 8l-2 2z"/><path fill="#9955cd" d="M20 931h1l1 17a33 33 0 0 1-3.2-9.6l-.6-3-.2-2.4z"/><path fill="#6d41a4" d="M1047 670c5.3.5 9.3 1.8 14 4v1c-9-1-9-1-13-3z"/><path fill="#7651a3" d="M1220 257q7 2.1 14 5v1c-5.8.6-10-1.5-15-4z"/><path fill="#794da1" d="M1077 220c6.7-.2 12.6.3 19 2-3.7 2.1-5.8 2-10 1v-2h-9z"/><path fill="#68339f" d="M733 1497a199 199 0 0 1 16 1v1l-6.2.6-3.6.4c-3.1 0-4.6-.3-7.2-2z"/><path fill="#813cc1" d="M1576 1166h2c-.7 4.4-2.2 8-4 12h-1c-.3-5-.1-8 3-12"/><path fill="#5d2d8a" d="M1127 1057h3c-1.6 3.8-4 6.2-7 9l-1-3c2.3-3.2 2.3-3.2 5-6"/><path fill="#550aac" d="m830 1023 4.9-.2h2.7l2.4.2 2 3c-8 .4-8 .4-12-3"/><path fill="#8650b9" d="M108 922c2.1 3.2 2.8 5.5 3.6 9.2l.8 3.3.6 2.5h-3l-1-5.2-.6-3c-.4-2.8-.4-2.8-.4-6.8"/><path fill="#3e0773" d="M3 760h1l1 11-3 1-.1-6.7C2 763 2 763 3 760"/><path fill="#622991" d="m1469 747 3 1c1.5 4 2.6 7 1 11-2.8-4-3.5-7.2-4-12"/><path fill="#6f30b2" d="M1590 636c3.7 5.5 4.2 8.4 4 15a23 23 0 0 1-4-15"/><path fill="#793fad" d="m614 614 2 1-1.4 4.3-.7 2.4c-.9 2.3-.9 2.3-2.9 5.3l.4-4.8.2-2.7c.4-2.5.4-2.5 2.4-5.5"/><path fill="#783ea9" d="M619 601h2c-.6 4.8-2 8.6-4 13h-1l.4-4.2.2-2.4c.4-2.5 1.2-4.2 2.4-6.4"/><path fill="#894ec3" d="M106 534q-.7 7.5-2 15h-1v-14c2-1 2-1 3-1"/><path fill="#9a68cb" d="M57 443c1.6 4.1.9 7.8 0 12-2 1.2-2 1.2-4 2l2.2-9.2c.8-2.8.8-2.8 1.8-4.8"/><path fill="#713fa1" d="M807 416a13 13 0 0 1-6.6 3.6l-2.5.8-1.9.6 1-4c3.2-1.6 6.4-1 10-1"/><path fill="#4c1879" d="M892 386c-3.5 2.4-5 2.2-9.2 2.1h-3.3l-2.5-.1c5.6-3 8.8-3 15-2"/><path fill="#3a0169" d="m1101 380 7.5 1.4c2.5.6 2.5.6 5.5 2.6l-4.8.3h-2.7c-2.5-.3-2.5-.3-4.3-2.3z"/><path fill="#591b8d" d="m603 353 1 3-2.7 2.3q-3.9 3-7.3 6.7l-2-1z"/><path fill="#6812c3" d="m376 66 2 1-10 10-1-3z"/><path fill="#772ebe" d="m1252 1524 1 2-9 4c1.5-4.6 1.5-4.6 4-6.4 2-.6 2-.6 4 .4"/><path fill="#64399c" d="M446 1393q5.6 2.8 11 6l-1 2-4-1v-2l-6-2z"/><path fill="#703fad" d="M222 1176q4 3.6 7 8v2h-3c-2.6-2.6-4-4.1-4.2-7.8z"/><path fill="#713ea7" d="M149 1043c1.9 2.9 2.7 5 3.6 8.2l.8 2.7.6 2.1c-4.8-3.9-4.8-3.9-5.3-7.1q0-3 .3-5.9"/><path fill="#7b43b2" d="M116 950c2.6 3.8 4.3 7.8 3.6 12.4l-.6 1.6c-2.4-5-3.3-8.3-3-14"/><path fill="#623795" d="M1131 732c3.2 2.4 5.5 4.2 7 8-2.4-.3-2.4-.3-5-1-2-3-2-3-2-7"/><path fill="#74409f" d="M1454 700h3c1.3 2.5 1.1 4.3 1 7.1v4.9c-4-8-4-8-4-12"/><path fill="#9975bb" d="m615 342 2 1c-2.2 3.2-3.7 4-7 6l-4 4-2-1 3.8-3.9 2.2-2.2c2-1.9 2-1.9 5-3.9"/><path fill="#5e17a7" d="M329 116h2c-1.4 3-3 5.3-5.1 7.8l-1.7 1.8-1.2 1.4-1-4 3-1 2-4z"/><path fill="#8a4dca" d="M489 1544c2.8-.2 2.8-.2 6 0 2.4 2 2.4 2 4 4l-2 1c-2-.8-2-.8-4.1-2l-2.2-1-1.7-1z"/><path fill="#4f0391" d="m1129 1442-5.7 2.4-3.3 1.4q-3.3 1.5-7 2.2c1-3 1-3 3.4-4.2l3-1 2.8-1.1c2.8-.7 4.2-.7 6.8.3"/><path fill="#5c238a" d="m940 1178-5 1v3h-7c3.3-3.9 7-5.8 12-4"/><path fill="#7023bc" d="m125 984 3 1c1.3 3.8 1 7 1 11a18 18 0 0 1-3.1-7.7l-.5-2.4z"/><path fill="#8346c0" d="M110 507h3c-.9 8.6-.9 8.6-3 12v-2.3c.1-2.8.1-2.8-1-5.7.4-2.2.4-2.2 1-4"/><path fill="#7c2acb" d="m150 397-3 9-3-1 2-7c2-1 2-1 4-1"/><path fill="#714199" d="m904 380 11 1v1l-13 2z"/><path fill="#8f53c8" d="M89 368h1c.2 4 0 6.6-2 10h-3l1.4-4.4.8-2.5c.8-2.1.8-2.1 1.8-3.1"/><path fill="#9153c6" d="m191 206 1 2c-1.4 3.7-2.1 5.6-5.7 7.4l-2.3.6c1.7-4 4.2-6.8 7-10"/><path fill="#55079c" d="m1113 1584-3 1v2l-8 1-1-2 4.9-1.6 2.7-.8c2.4-.6 2.4-.6 4.4.4"/><path fill="#904fd5" d="M460 1530c6.5-.4 6.5-.4 9 1.5l1 1.5-1 2-9-4z"/><path fill="#5d2c8c" d="m944 1494 5.8-.1 3.2-.1c3 .2 4.5.7 7 2.2-6.2.9-6.2.9-8 1l-1-1-7-1z"/><path fill="#6730b5" d="M472 1409c3.5 1.2 6.1 2.7 9 5-1.7.7-1.7.7-4 1-2.7-1.2-2.7-1.2-5-3z"/><path fill="#7b3dac" d="M144 1241c2.4.7 2.4.7 5 2 .8 2.6.8 2.6 1 5h-3z"/><path fill="#6f499e" d="M250 1215c3 2.8 5.4 5.2 7 9-2.4-.6-2.4-.6-5-2-1.3-3.6-1.3-3.6-2-7"/><path fill="#64348e" d="M110 1184c1.9.3 1.9.3 4 1 2 3 2 3 2 6-1.9-.1-1.9-.1-4-1-1.2-3-1.2-3-2-6"/><path fill="#9a57cd" d="M33 993h2l1 14c-2-3-2.5-4.7-3.2-8.1l-.5-2.7-.3-2.2z"/><path fill="#6838a9" d="M1087 690c4 2.2 6.9 4.7 10 8l-5-1v-2l-2-.8c-2-1.2-2-1.2-3-4.2"/><path fill="#8956b2" d="M1420 628h3c3.1 5.5 3.1 5.5 2.6 8.2l-.6 1.8-2.5-3.9-1.4-2.2c-1.1-1.9-1.1-1.9-1.1-3.9"/><path fill="#724897" d="M1407 606c2.4.6 2.4.6 5 2a26 26 0 0 1 2 6h-3z"/><path fill="#6f14c5" d="m138 418 2 1c-.2 3.4-.2 3.4-1 7l-4 2z"/><path fill="#9358c8" d="m707 1611 6 2 1 2-12-1v-1h5z"/><path fill="#440a7f" d="M929 1498v1l-5.3 1.6-3 1c-2.7.4-2.7.4-5.7-1.6 3-3 10-2.1 14-2"/><path fill="#7f59ad" d="m586 1461 12 3v1l-4.3.1-2.4.1c-2.3-.2-2.3-.2-5.3-2.2z"/><path fill="#6f1cae" d="M170 1274c3.7 3 4.6 5.2 5 10-2-1-2-1-4-3-.7-3.7-.7-3.7-1-7"/><path fill="#62318b" d="m757 1180 7 2v3l-10-2z"/><path fill="#6637a9" d="m696 968 6.2 4.5c1.8 1.5 1.8 1.5 2.8 3.5-6.8-2-6.8-2-9-5z"/><path fill="#8f68b1" d="M476 964h2v3h2c2.2 3.2 2.2 4.3 2 8a25 25 0 0 1-6-11"/><path fill="#9256d6" d="M91 610h2l-1 15h-1l-.6-7-.3-3.8-.1-3.2z"/><path fill="#6f439e" d="M1575 599a13 13 0 0 1 3.6 6.6l.8 2.5.6 1.9c-3-1-3-1-4.2-2.7-1-2.8-1-5.3-.8-8.3"/><path fill="#5c2d9c" d="M394 1357c3.4 1.4 5.5 3.3 8 6-5.7-.7-5.7-.7-8-3z"/><path fill="#7432af" d="M236 1357c4 1.3 5.8 2.5 8 6h-5z"/><path fill="#7445aa" d="M187 1120c4.4 5.1 4.4 5.1 5 9h-3c-1.5-3.4-2-5.2-2-9"/><path fill="#8450af" d="m78 1117 1 3h2v5h2l-1 3a25 25 0 0 1-5-10z"/><path fill="#7325b0" d="M69 1094c2.3 3.4 2.5 6 3 10l-2 1c-1.2-2.4-1.1-4-1-6.6v-4.4"/><path fill="#680bae" d="M28 966a29 29 0 0 1 3 11l-3 1z"/><path fill="#552281" d="M896 750c5.5.6 5.5.6 7.9 2.6l1.1 1.4c-2 1-2 1-4.5.3-2.5-1.3-2.5-1.3-4.5-4.3"/><path fill="#945bcd" d="M109 521c1.5 2.9.5 4.6-.4 7.6l-1 3-.6 2.4h-1v-9h2z"/><path fill="#724d9e" d="M1457 420c4 2.9 6 5.4 8 10h-2v-2l-3-1v-3l-3-1z"/><path fill="#8b50c4" d="M94 358h1c.4 5.4.4 5.4-1.5 8.4L92 368l-2-1q1.8-4.5 4-9"/><path fill="#7519c6" d="M165 354h2l-1 7-4 1c1.9-5.7 1.9-5.7 3-8"/><path fill="#6c20b4" d="M175 335h2l-2 7-4 1c1.8-5.7 1.8-5.7 4-8"/><path fill="#7944b1" d="m499 1549 6.7.6c2.3.4 2.3.4 5.3 2.4v2l-4.3-1.4-2.4-.7c-2.3-.9-2.3-.9-5.3-2.9"/><path fill="#622dac" d="m464 1404 8 4-2 2-6-2z"/><path fill="#875fab" d="m1349 1271 1 2-2 4h-3l-1 3-2-1z"/><path fill="#651c9c" d="M135 1224h2l3 6h-4c-1-1-1-1-1-3.6z"/><path fill="#6c3c9e" d="M686 1160h8l1 4-9-3z"/><path fill="#663994" d="m1064 1118 4 1-9 6 1-4h3z"/><path fill="#884fb8" d="m73 1108 2 1v2h2v7a16 16 0 0 1-4-10"/><path fill="#451172" d="M1173 972h1v5l-3 1v4h-2l1.4-4.4.8-2.5c.8-2.1.8-2.1 1.8-3.1"/><path fill="#7648b7" d="M685 959c3.4 1.4 5 3 7 6-3.2-.4-4.6-.6-6.8-3l-1.2-2z"/><path fill="#7a54a6" d="M645 912c3 2.8 4.7 5 6 9-2.4-1.1-2.4-1.1-5-3-.8-3.2-.8-3.2-1-6"/><path fill="#784da1" d="M1171 797c2.5 3.7 3 6.7 4 11l-3-1c-1.6-3.2-1-6.4-1-10"/><path fill="#602e8f" d="M889 740c2.5 1.2 2.5 1.2 5 3 .3 2.7.3 2.7 0 5-2.5-2.3-2.5-2.3-5-5z"/><path fill="#653b8d" d="M829 406c-2.7 2.7-5.4 3-9 4l-1-3c3.5-1.2 6.4-1 10-1"/><path fill="#6927a7" d="M188 309h1c-.4 5.3-1.4 8.1-5 12 .5-4.6 1.8-8 4-12"/><path fill="#6e4695" d="m685 294 2 1-2 3h-4v2l-3 1-1-2 3.9-2.6 2.2-1.4z"/><path fill="#9256c9" d="M141 276h1l-1 7h-2l-1 2h-2c1.2-3.4 2.6-6.2 5-9"/><path fill="#7a30be" d="m224 250 3 1-5 8c-1.2-3.6-.6-4.6 1-8z"/><path fill="#702eae" d="M231 240h2c-1.4 4-3.3 6.8-6 10v-5l3-1c.7-2 .7-2 1-4"/><path fill="#8f56c2" d="M183 216c1 2 1 2 .3 4.6-1.3 2.4-1.3 2.4-3.4 3.2l-1.9.2q2-4.3 5-8"/><path fill="#580399" d="m297 97 1 3-5 5-3-1z"/><path fill="#6416b1" d="M396 45c-.6 1.9-.6 1.9-2 4-3.1 1.3-3.1 1.3-6 2 4.6-6 4.6-6 8-6"/><path fill="#6d3ba4" d="m521 1558 6.8.6c2.2.4 2.2.4 4.2 2.4-2.2 1-3.6 1.1-5.8.4l-5.2-2.4z"/><path fill="#7223c1" d="M485 1540c5.8 1.8 5.8 1.8 8 4-3.4.2-3.4.2-7 0l-2-3z"/><path fill="#8845cb" d="m358 1466 7 2 1 4a22 22 0 0 1-8-6"/><path fill="#8946cb" d="m350 1460 7 2 1 4a22 22 0 0 1-8-6"/><path fill="#7024bd" d="m302 1419 6.2 4.5c1.8 1.5 1.8 1.5 2.8 3.5-5.5-1.5-5.5-1.5-7.9-4-1.1-2-1.1-2-1.1-4"/><path fill="#5c3293" d="M386 1351c3.4 1.4 5.5 3.3 8 6-2.9-.2-2.9-.2-6-1-1.4-2.6-1.4-2.6-2-5"/><path fill="#6a1fb5" d="m1478 1330 3 1-4 5-3-1z"/><path fill="#9051c2" d="M180 1292h3l4 7h-3z"/><path fill="#863fc8" d="M1587 1139c1.1 3.3.9 5-.4 8.3l-1 2q-.2 1-.6 1.7h-1c-.3-4.9.6-7.8 3-12"/><path fill="#7f38be" d="M541 1057c5.8 1.6 5.8 1.6 8 5-2.3.3-2.3.3-5 0-1.8-2.5-1.8-2.5-3-5"/><path fill="#6f41a5" d="M1154 764c4.4 5.1 4.4 5.1 5 9-3-1-3-1-5-4z"/><path fill="#682f9b" d="m1607 689 2 1q.7 4 1 8c-3-2-3-2-3.7-5l-.3-3z"/><path fill="#762ab7" d="M6 659h2v8l-3 1z"/><path fill="#630cbe" d="M91 600c2.4 3.6 2.2 5.7 2 10l-3 1z"/><path fill="#572385" d="M632 575c.7 1.6.7 1.6 1 4-1.4 3.3-1.4 3.3-3 6l-2-3z"/><path fill="#78549b" d="M1361 542c4 1 4 1 5.8 4l1.2 3-1 2z"/><path fill="#9b65ce" d="M43 483h1v10h-3z"/><path fill="#5a0ca1" d="M47 479c1 2 1 2 .4 4.2l-.8 2.4-1 2.5-.6 1.9h-1c-.4-7.5-.4-7.5 1.5-10z"/><path fill="#623b92" d="M1370 343c3.4 1.4 5.5 3.3 8 6-2.8-.4-4.6-.7-6.8-2.4-1.2-1.6-1.2-1.6-1.2-3.6"/><path fill="#7e31c5" d="m243 224 2 1-5 7-1-4c2-2.2 2-2.2 4-4"/><path fill="#8131cc" d="m261 198 3 1-4 6-2-4z"/><path fill="#a46ecf" d="m334 64 2 1-8 8-2-2z"/><path fill="#8455b1" d="M362 47c-.6 2-.6 2-2 4-3.6.8-3.6.8-7 1 2.5-2.8 5-5 9-5"/><path fill="#8d53d1" d="M390 31c-1 3-1 3-3.3 4.3-2.9.7-4 .5-6.7-.3l3.9-2 2.2-1.1c1.9-.9 1.9-.9 3.9-.9"/><path fill="#6e3ba4" d="M511 1554c6.5-.4 6.5-.4 9 1.5l1 1.5c-2 1-2 1-4 .4l-2.1-.8-2.2-1-1.7-.6z"/><path fill="#7843b2" d="m724 1495 10 1c-4 2-5.7 2.2-10 2z"/><path fill="#8c6aac" d="m1265 1353 2 1-8 8-2-2z"/><path fill="#7144b0" d="M318 1294c3.2.4 4.6.6 6.8 3l1.2 2c-3.2-.4-4.6-.6-6.8-3z"/><path fill="#8d69b0" d="M1393 1211c1 2 1 2 .3 4.5-1.5 2.8-2.4 3.4-5.3 4.5 1.2-3.5 2.7-6.1 5-9"/><path fill="#8c4dca" d="M1424 1156h1c.4 5.5.4 5.5-1.5 7.9l-1.5 1.1c-1-3-1-3 .4-6.2z"/><path fill="#7337ac" d="M1048 1133c-5.7 4-5.7 4-8 4l1-4c3-1 3.9-1 7 0"/><path fill="#7633a8" d="M999 950c1 2 1 2 .3 4.5-1.3 2.5-1.3 2.5-4.3 4.5.5-3.8 1.5-6 4-9"/><path fill="#65359c" d="M627 883c4 3.3 4 3.3 4.3 6.8l-.3 2.2c-2.5-2-3-3-3.7-6.2q0-1.4-.3-2.8"/><path fill="#400c85" d="M1080 688c2.3-.3 2.3-.3 5 0 1.8 2.5 1.8 2.5 3 5a16 16 0 0 1-8-5"/><path fill="#623296" d="M1031 664c3.4.3 3.4.3 7 1 1.4 2 1.4 2 2 4l-5-1v-2z"/><path fill="#6e3aa2" d="m787 426-9 5v-3h3v-2c2-1 2-1 6 0"/><path fill="#7518c8" d="m205 280 2 1-1 5-4 1c1.9-4.7 1.9-4.7 3-7"/><path fill="#9a58cf" d="M157 251c1 2 1 2 0 5.1l-1 2.9-4-1z"/><path fill="#5e11b0" d="M295 155h2c-.6 2.9-.9 3.9-3 6l-3-1z"/><path fill="#7d34c6" d="m1141 1573 3 1-1 3-5 1c1.9-3.9 1.9-3.9 3-5"/><path fill="#8b49cd" d="M1206 1546h7c-3 2-5.6 3-9 4z"/><path fill="#7a33c3" d="M1264 1515c2 1 2 1 3 3l-7 3c1.8-4.9 1.8-4.9 4-6"/><path fill="#3c0277" d="M713 1494h3v2l6 1v1l-11-1 2-1z"/><path fill="#8357ae" d="m704 1492 9 1v3a53 53 0 0 1-9-3z"/><path fill="#5d0bb3" d="M1374 1439c-.7 2-.7 2-2 4-2.6.8-2.6.8-5 1 4.8-5 4.8-5 7-5"/><path fill="#5d11ae" d="m1439 1375 3 1-3 4-4-1z"/><path fill="#9364bd" d="m1248 1366 2 1c-2.6 4.9-2.6 4.9-6 6l-2-2z"/><path fill="#7b38bb" d="m1484 1322 3 1-5 7-1-4 3-1z"/><path fill="#9373b5" d="M1412 1180c1 2 1 2 .3 4.4-1.4 2.8-2.7 4-5.3 5.6q2-5.3 5-10"/><path fill="#7c43b6" d="M638 1137c6.8.8 6.8.8 9 3l-2 2-7-4z"/><path fill="#7244aa" d="M177 1102c4 4.3 4 4.3 4.3 7.8l-.3 2.2c-2.8-2-3-3.1-3.7-6.7z"/><path fill="#7a4eaa" d="m576 1090 5 2v3h2l-1 2c-4.9-3.6-4.9-3.6-6-7"/><path fill="#754c9b" d="M530 1045h5l1 5c-3.2-1.4-4-2-6-5"/><path fill="#744b99" d="M500 1004h3c1.4 2.4 2 3.5 1.6 6.3l-.6 1.7c-4-5.7-4-5.7-4-8"/><path fill="#74489b" d="M493 991c2 1 2 1 4 4v5c-4-4.5-4-4.5-4-9"/><path fill="#7a4ca0" d="M1003 794c1.9.2 1.9.2 4 1 1.3 2.6 1.3 2.6 2 5h-3z"/><path fill="#4d1e7d" d="m1149 760 5 2v6a23 23 0 0 1-5-8"/><path fill="#78509e" d="M891 719c1.4 3.8.7 7 0 11l-2-1c.5-3.5.9-6.7 2-10"/><path fill="#56209e" d="M1097 698c4.8 2.5 4.8 2.5 5.8 5.2l.2 1.8c-3-1.1-3.8-1.7-5.2-4.6z"/><path fill="#9271b2" d="m458 551 2 4-4 6c-1-2-1-2-.4-4l.8-2.1 1-2.2q.2-.9.6-1.7"/><path fill="#8d64b7" d="m1312 493 6 1 1 5c-3.4-1.4-5-3-7-6"/><path fill="#a776d7" d="M47 471a13 13 0 0 1 0 9l-3 2q1-5.6 3-11"/><path fill="#9468bb" d="M76 397h1c.1 5.8.1 5.8-1 8h-3c1.9-5.7 1.9-5.7 3-8"/><path fill="#895bb3" d="M80 388h1l-1 9h-3z"/><path fill="#6204ad" d="M139 281c.8 1.6.8 1.6 1 4-2 3.3-2 3.3-4 6-1.1-3.7-1.1-3.7 0-6h2z"/><path fill="#7737b0" d="m177 224 3 1-3 5h-2c.9-4.9.9-4.9 2-6"/><path fill="#622991" d="M213 181h2c-1.2 2.5-2 4-4 6l-3-1 2-3h3z"/><path fill="#8a3cc2" d="m324 72 2 1c-1.8 3-1.8 3-4 6h-3c3.9-5.9 3.9-5.9 5-7"/><path fill="#9454d5" d="M598 1587h9v3l-9-2z"/><path fill="#6919b9" d="m1269 1512 2 1-1 3-5 1c1.8-3.9 1.8-3.9 4-5M1279 1506l2 1-1 3-5 1c1.8-3.9 1.8-3.9 4-5"/><path fill="#a785ce" d="m925 1498-1.9.4-2.5.5-2.4.6c-2.2.4-2.2.4-4.2 1.5l-2-2 4.8-1 2.7-.7c2.5-.3 2.5-.3 5.5.7"/><path fill="#7142b4" d="M481 1414c3.4 1.2 5.6 2.3 8 5-2.9-.2-2.9-.2-6-1-1.4-2-1.4-2-2-4"/><path fill="#752fb3" d="m224 1342 5 5-1 2c-2-1.2-2-1.2-4-3z"/><path fill="#9560c0" d="m1322 1300 1 2c-.7 2-.7 2-2 4-2.1.8-2.1.8-4 1 1.3-2.9 2.7-4.9 5-7"/><path fill="#8463a6" d="m1341 1280 2 2-6 6-2-1z"/><path fill="#8a42c1" d="m167 1272 3 1 1 7c-2-1.7-2-1.7-4-4z"/><path fill="#85b" d="M626 1129c3.4.8 3.4.8 7 2l1 3a16 16 0 0 1-8-5"/><path fill="#6d3f9d" d="m1074 1111 3 1-7 5-1-3h3v-2z"/><path fill="#6014af" d="m1091 1097 2 1-7 6c1-4.3 1.5-4.7 5-7"/><path fill="#774e9c" d="M519 1030h2v2h3l1 6c-4.9-4.6-4.9-4.6-6-8"/><path fill="#6e3c9a" d="m1005 944 2 1-1 2h-2l-1 3h-3l2-4h3z"/><path fill="#7312ba" d="M19 923h1l1 8-3 2z"/><path fill="#733e9f" d="m1020 822 3 1 1 7-2-1z"/><path fill="#7a48bc" d="m1061 675 5 1v3l-5-1z"/><path fill="#63338e" d="m627 586 2 1-4 8h-1c-.3-3.1-.2-4.6 1.5-7.3z"/><path fill="#7136a4" d="m1345 524 4 1 1 4h-3z"/><path fill="#883fd0" d="M130 443h2l-2 8c-2-3-2-3-1.7-5.1.7-1.9.7-1.9 1.7-2.9"/><path fill="#8b41d3" d="M136 427h2l-2 8c-2-3-2-3-1.7-5.1.7-1.9.7-1.9 1.7-2.9"/><path fill="#7948a5" d="M1116 387c7.8-.1 7.8-.1 10 1v2l-10-2z"/><path fill="#552187" d="m178 328 2 1-2 6h-3c1.9-4.7 1.9-4.7 3-7"/><path fill="#a15ed8" d="M135 285c1 2 1 2 .9 4-1.3 2.8-3.2 3.6-5.9 5 1.2-3.5 2.7-6.1 5-9"/><path fill="#8131ca" d="m203 286 1 3c-2 2.7-2 2.7-4 5-.2-2.9-.2-2.9 0-6z"/><path fill="#8836d3" d="M211 276c-1 3-1.8 4.8-4 7l-1-5c3-2 3-2 5-2"/><path fill="#884fb6" d="m207 187 1 2c-1.4 2.6-1.4 2.6-3 5l-3-2z"/></svg>